<svg width="1200" height="630" viewBox="0 0 1200 630" fill="none" xmlns="http://www.w3.org/2000/svg">
<rect width="1200" height="630" fill="#6AB3AB"/>
<path d="M434.148 159.26C439.576 162.584 445.337 165.537 451.973 165.58C470.53 159.826 489.521 156.738 508.82 155.489C515.047 149.685 522.141 145.087 528.993 140.134C537.46 134.009 546.36 131.639 556.551 134.515C559.04 135.233 560.813 136.22 561.121 138.81C561.646 143.146 561.962 147.474 562.37 151.828C574.8 151.828 587.23 151.828 599.669 151.828C612.115 151.828 624.546 151.828 636.968 151.828C637.384 147.474 637.709 143.146 638.2 138.81C638.533 136.22 640.306 135.233 642.779 134.515C652.978 131.639 661.878 134.009 670.337 140.134C677.214 145.087 684.29 149.685 690.518 155.489C709.842 156.738 728.832 159.834 747.373 165.58C754 165.537 759.745 162.584 765.173 159.26C768.778 157.109 768.712 153.717 765.823 150.537C763.825 148.343 761.219 147.162 758.563 146.268C743.768 141.307 728.483 138.658 713.047 136.894C692.891 134.557 672.701 133.174 652.436 132.069C634.853 131.149 617.244 139.763 599.669 139.873C582.093 139.763 564.493 131.149 546.901 132.069C526.637 133.174 506.447 134.557 486.291 136.894C470.855 138.658 455.586 141.307 440.75 146.268C438.127 147.154 435.497 148.343 433.507 150.537C430.626 153.709 430.559 157.109 434.148 159.26Z" fill="white"/>
<path d="M505.449 159.773C503.068 160.912 502.935 171.357 503.759 173.879C504.583 176.402 523.183 177.676 525.239 176.233C527.354 174.833 529.735 161.646 525.414 160.566C519.22 158.98 507.83 158.609 505.449 159.773Z" fill="white"/>
<path d="M748.25 417.359C749.615 414.398 750.881 411.032 751.913 407.125C752.363 405.666 759.764 374.323 790.943 383.722L797.545 240.584C790.335 268.476 772.685 268.974 758.89 263.557C760.213 260.587 761.454 257.204 762.445 253.273C762.853 251.881 769.513 222.656 798.087 228.73L801.309 158.857C801.309 158.857 765.692 188.344 675.542 191.508C642.481 191.508 619.511 199.337 599.663 199.337C579.806 199.337 556.819 191.508 523.8 191.508C433.625 188.344 398 158.857 398 158.857L401.938 243.866C402.329 243.402 402.729 243.022 403.12 242.525C404.069 241.36 423.035 216.193 448.145 238.416C443.991 241.841 441.543 245.174 441.485 245.283C426.798 264.528 412.944 263.186 402.488 256.006L408.465 385.198C416.275 382.456 426.432 382.802 437.788 393.078C433.592 396.453 431.111 399.752 431.044 399.87C423.609 409.403 416.45 413.748 409.839 414.845L411.079 441.801C411.337 447.647 413.303 452.271 417.066 456.497C426.54 467.111 438.929 472.763 451.775 477.556C477.201 487.038 503.602 491.822 530.444 494.969C553.489 497.677 645.828 497.677 668.865 494.969C695.732 491.822 722.124 487.038 747.534 477.556C760.389 472.763 772.777 467.111 782.251 456.497C786.006 452.271 787.979 447.647 788.262 441.801L790.927 384.093C788.604 388.953 787.697 392.876 787.663 392.994C780.462 422.7 762.287 423.062 748.25 417.359ZM756.317 242.398C753.795 247.325 752.779 251.392 752.779 251.51C745.07 280.92 726.811 280.777 712.783 274.728C714.223 271.876 715.547 268.543 716.654 264.663C717.112 263.22 725.063 232.114 756.317 242.398ZM713.482 247.561C710.776 252.328 709.669 256.403 709.611 256.487C701.06 285.434 682.727 284.565 668.84 277.976C670.339 275.141 671.746 271.91 672.961 268.105C673.486 266.645 682.353 236.053 713.482 247.561ZM670.572 252.581C667.758 257.204 666.542 261.187 666.509 261.305C657.118 289.779 638.726 288.226 624.922 281.182C626.529 278.398 628.078 275.234 629.377 271.496C629.91 270.087 639.642 239.985 670.572 252.581ZM627.462 256.884C623.99 261.254 622.15 265.068 622.142 265.152C608.438 292.69 590.704 289.095 578.324 280.473C580.314 277.874 582.304 274.871 584.194 271.277C584.976 269.919 599.213 240.812 627.462 256.884ZM579.132 260.157C575.21 264.139 573.062 267.733 573.012 267.818C556.844 293.66 539.502 288.134 527.988 278.187C530.211 275.841 532.484 273.04 534.69 269.674C535.564 268.467 552.473 241.031 579.132 260.157ZM532.434 257.373C528.446 261.195 526.173 264.688 526.123 264.781C509.297 289.998 492.104 283.772 480.823 273.378C483.104 271.15 485.444 268.468 487.75 265.152C488.641 263.954 506.241 237.243 532.434 257.373ZM445.389 253.83C446.322 252.64 464.638 226.723 490.306 247.949C486.193 251.569 483.845 255.028 483.762 255.087C466.278 279.57 449.244 272.635 438.279 261.794C440.594 259.617 442.992 257.01 445.389 253.83ZM427.656 416.338C430.02 414.195 432.435 411.614 434.874 408.467C435.807 407.286 454.406 381.562 479.832 403.084C475.686 406.645 473.297 410.087 473.213 410.154C455.48 434.427 438.512 427.298 427.656 416.338ZM470.091 428.42C472.398 426.209 474.754 423.543 477.102 420.261C478.001 419.063 495.909 392.547 521.86 412.98C517.83 416.735 515.516 420.228 515.474 420.321C498.373 445.344 481.256 438.915 470.091 428.42ZM517.198 433.777C519.446 431.423 521.743 428.673 523.991 425.324C524.874 424.092 542.083 396.875 568.542 416.305C564.579 420.236 562.397 423.805 562.339 423.889C545.879 449.528 528.612 443.817 517.198 433.777ZM566.169 436.595C568.184 434.022 570.19 431.035 572.138 427.45C572.938 426.1 587.482 397.153 615.548 413.529C612.043 417.874 610.169 421.67 610.153 421.755C596.149 449.14 578.449 445.344 566.169 436.595ZM655.894 418.431C646.195 446.787 627.812 445.04 614.091 437.827C615.723 435.068 617.313 431.921 618.653 428.209C619.203 426.8 629.26 396.807 660.057 409.749C657.184 414.347 655.927 418.287 655.894 418.431ZM660.182 435.11C661.714 432.292 663.154 429.061 664.419 425.273C664.952 423.839 674.16 393.357 705.156 405.202C702.401 409.96 701.243 413.984 701.185 414.077C692.335 442.931 674.01 441.851 660.182 435.11ZM744.944 406.737C736.918 436.072 718.66 435.718 704.707 429.508C706.18 426.657 707.529 423.349 708.695 419.477C709.161 418.06 717.453 387.046 748.591 397.676C746.01 402.561 744.944 406.619 744.944 406.737Z" fill="white"/>
<path d="M673.894 160.566C669.615 161.654 671.996 174.833 674.077 176.233C676.167 177.676 694.725 176.402 695.566 173.879C696.39 171.357 696.257 160.912 693.884 159.773C691.528 158.609 680.122 158.98 673.894 160.566Z" fill="white"/>
</svg>
