<svg xmlns="http://www.w3.org/2000/svg" width="256" height="256" viewBox="0 0 256 256" fill="none">
  <rect width="256" height="256" fill="#6AB3AB"/>
  <path d="M79.5764 82.0661C81.1646 83.0497 82.8502 83.9234 84.7916 83.9359C90.2213 82.2334 95.7776 81.3197 101.424 80.9502C103.246 79.2327 105.322 77.8722 107.326 76.4068C109.804 74.5945 112.408 73.893 115.389 74.7443C116.117 74.9565 116.636 75.2486 116.726 76.015C116.88 77.2981 116.972 78.5787 117.092 79.8668C120.729 79.8668 124.365 79.8668 128.005 79.8668C131.646 79.8668 135.283 79.8668 138.917 79.8668C139.039 78.5787 139.134 77.2981 139.278 76.015C139.375 75.2486 139.894 74.9565 140.618 74.7443C143.602 73.893 146.206 74.5945 148.681 76.4068C150.693 77.8722 152.763 79.2327 154.585 80.9502C160.239 81.3197 165.795 82.2359 171.22 83.9359C173.159 83.9234 174.84 83.0497 176.428 82.0661C177.483 81.4295 177.463 80.426 176.618 79.4849C176.033 78.8358 175.271 78.4864 174.494 78.2217C170.165 76.7539 165.693 75.97 161.177 75.4482C155.279 74.7567 149.372 74.3474 143.443 74.0203C138.299 73.7482 133.147 76.2971 128.005 76.3295C122.862 76.2971 117.713 73.7482 112.566 74.0203C106.637 74.3474 100.73 74.7567 94.8324 75.4482C90.3163 75.97 85.8489 76.7539 81.5081 78.2217C80.7408 78.4839 79.9711 78.8358 79.3889 79.4849C78.5461 80.4235 78.5265 81.4295 79.5764 82.0661Z" fill="white"/>
  <path d="M100.437 82.218C99.7405 82.555 99.7015 85.6455 99.9427 86.3919C100.184 87.1383 105.626 87.5154 106.227 87.0885C106.846 86.6741 107.543 82.7722 106.278 82.4527C104.466 81.9833 101.134 81.8735 100.437 82.218Z" fill="white"/>
  <path d="M171.476 158.435C171.876 157.559 172.246 156.563 172.548 155.407C172.679 154.975 174.845 145.701 183.967 148.482L185.899 106.129C183.789 114.382 178.625 114.529 174.589 112.927C174.976 112.048 175.339 111.047 175.629 109.884C175.748 109.472 177.697 100.824 186.057 102.622L187 81.9468C187 81.9468 176.579 90.6716 150.203 91.6077C140.53 91.6077 133.81 93.9243 128.002 93.9243C122.193 93.9243 115.467 91.6077 105.806 91.6077C79.4232 90.6716 69 81.9468 69 81.9468L70.1522 107.1C70.2667 106.963 70.3836 106.85 70.4981 106.703C70.7757 106.359 76.3248 98.9121 83.6715 105.487C82.4559 106.501 81.7398 107.487 81.7228 107.52C77.4258 113.214 73.3724 112.817 70.313 110.692L72.062 148.919C74.3469 148.108 77.3186 148.21 80.6412 151.251C79.4135 152.249 78.6876 153.225 78.6681 153.26C76.4928 156.081 74.398 157.367 72.4638 157.691L72.8268 165.667C72.9023 167.397 73.4773 168.765 74.5783 170.016C77.3504 173.156 80.9749 174.829 84.7335 176.247C92.1727 179.053 99.897 180.468 107.75 181.399C114.493 182.201 141.509 182.201 148.25 181.399C156.11 180.468 163.832 179.053 171.267 176.247C175.028 174.829 178.652 173.156 181.424 170.016C182.523 168.765 183.1 167.397 183.183 165.667L183.962 148.592C183.283 150.03 183.017 151.191 183.008 151.226C180.901 160.016 175.583 160.123 171.476 158.435ZM173.836 106.666C173.098 108.124 172.801 109.327 172.801 109.362C170.546 118.064 165.204 118.022 161.099 116.232C161.52 115.388 161.908 114.402 162.232 113.254C162.366 112.827 164.692 103.623 173.836 106.666ZM161.304 108.193C160.512 109.604 160.188 110.81 160.171 110.835C157.669 119.4 152.305 119.143 148.242 117.193C148.681 116.354 149.092 115.398 149.448 114.272C149.602 113.84 152.196 104.788 161.304 108.193ZM148.749 109.679C147.926 111.047 147.57 112.225 147.56 112.26C144.813 120.685 139.432 120.226 135.393 118.142C135.863 117.318 136.316 116.382 136.696 115.276C136.852 114.859 139.7 105.952 148.749 109.679ZM136.136 110.952C135.12 112.245 134.582 113.374 134.579 113.398C130.57 121.547 125.381 120.483 121.759 117.932C122.341 117.163 122.924 116.274 123.477 115.211C123.706 114.809 127.871 106.196 136.136 110.952ZM121.995 111.921C120.848 113.099 120.22 114.162 120.205 114.187C115.475 121.834 110.401 120.199 107.032 117.255C107.682 116.561 108.347 115.733 108.993 114.736C109.248 114.379 114.196 106.261 121.995 111.921ZM108.333 111.097C107.166 112.228 106.501 113.261 106.486 113.289C101.563 120.75 96.533 118.908 93.2323 115.832C93.8998 115.173 94.5843 114.38 95.2591 113.398C95.5197 113.044 100.669 105.14 108.333 111.097ZM82.8652 110.048C83.138 109.696 88.497 102.028 96.0069 108.308C94.8036 109.379 94.1166 110.403 94.0923 110.42C88.9769 117.665 83.993 115.613 80.7849 112.405C81.4621 111.761 82.1637 110.989 82.8652 110.048ZM77.6767 158.133C78.3685 157.499 79.0749 156.735 79.7886 155.804C80.0615 155.455 85.5032 147.843 92.9424 154.212C91.7294 155.265 91.0303 156.283 91.0059 156.303C85.8175 163.485 80.8531 161.376 77.6767 158.133ZM90.0925 161.708C90.7672 161.054 91.4567 160.265 92.1436 159.294C92.4067 158.94 97.6462 151.093 105.239 157.14C104.06 158.251 103.383 159.284 103.371 159.312C98.3672 166.716 93.359 164.814 90.0925 161.708ZM103.875 163.293C104.533 162.597 105.205 161.783 105.862 160.792C106.121 160.427 111.156 152.374 118.897 158.123C117.738 159.287 117.099 160.343 117.082 160.367C112.267 167.954 107.214 166.264 103.875 163.293ZM118.203 164.127C118.792 163.366 119.379 162.482 119.949 161.421C120.183 161.022 124.439 152.457 132.65 157.302C131.625 158.588 131.077 159.711 131.072 159.736C126.974 167.839 121.796 166.716 118.203 164.127ZM144.455 158.752C141.617 167.143 136.238 166.626 132.224 164.492C132.701 163.675 133.167 162.744 133.559 161.646C133.719 161.229 136.662 152.354 145.672 156.184C144.832 157.544 144.464 158.71 144.455 158.752ZM145.709 163.688C146.157 162.854 146.579 161.898 146.949 160.777C147.105 160.353 149.799 151.333 158.868 154.838C158.061 156.246 157.723 157.437 157.706 157.464C155.116 166.002 149.755 165.682 145.709 163.688ZM170.509 155.292C168.161 163.972 162.819 163.867 158.736 162.03C159.167 161.186 159.562 160.208 159.903 159.062C160.039 158.643 162.466 149.466 171.576 152.611C170.821 154.057 170.509 155.257 170.509 155.292Z" fill="white"/>
  <path d="M149.721 82.4527C148.469 82.7747 149.166 86.6741 149.775 87.0885C150.386 87.5154 155.816 87.1383 156.062 86.3919C156.303 85.6455 156.264 82.555 155.57 82.218C154.88 81.8735 151.543 81.9833 149.721 82.4527Z" fill="white"/>
</svg>
