<svg xmlns="http://www.w3.org/2000/svg" width="12" height="12" viewBox="0 0 12 12" fill="none">
  <path fill-rule="evenodd" clip-rule="evenodd" d="M7.74399 1.00008H4.45071C4.2978 0.99801 4.14708 1.03417 4.01438 1.1048C3.8806 1.176 3.77015 1.27957 3.6948 1.40446C3.61945 1.52935 3.58202 1.67088 3.58652 1.81396C3.59087 1.9524 3.63431 2.08727 3.71238 2.20512L4.36328 3.33036C3.33552 3.83768 2.51878 4.37133 1.94767 5.03924C1.30946 5.78563 1 6.67309 1 7.81277C1 8.91722 1.55327 9.7346 2.47429 10.2596C3.37484 10.7729 4.61079 11 6 11C7.38915 11 8.62541 10.7729 9.52622 10.2575C10.4477 9.73025 11 8.90907 11 7.79838C11 6.6588 10.6906 5.77112 10.0521 5.02632C9.48566 4.36568 8.67792 3.83866 7.66259 3.34113L8.46254 2.18106C8.46813 2.17296 8.47332 2.16463 8.4781 2.15611C8.54489 2.03707 8.57793 1.90421 8.57413 1.77005C8.57034 1.63588 8.52982 1.50482 8.45639 1.3892C8.38296 1.27358 8.27904 1.17721 8.15441 1.10915C8.02978 1.0411 7.88854 1.0035 7.74399 1.00008ZM4.36075 1.66544C4.38521 1.65242 4.41302 1.6458 4.44121 1.6463L7.72946 1.64636C7.75478 1.64743 7.77946 1.65423 7.80134 1.66618C7.82413 1.67862 7.84313 1.69624 7.85656 1.71739C7.86999 1.73853 7.8774 1.76249 7.87809 1.78702C7.87869 1.80811 7.87431 1.82902 7.86531 1.8483L6.86974 3.29206C6.85817 3.30883 6.84839 3.32643 6.84043 3.3446C6.7486 3.45845 6.63087 3.55244 6.49536 3.61974C6.34301 3.6954 6.1729 3.73499 6.00012 3.73499C5.82733 3.73499 5.65722 3.6954 5.50487 3.61974C5.36911 3.55232 5.2512 3.4581 5.15929 3.34397C5.15471 3.33358 5.14954 3.32338 5.14376 3.3134L4.32039 1.88999C4.31621 1.88277 4.31174 1.87569 4.30698 1.86879C4.29179 1.84674 4.28333 1.82127 4.28251 1.79511C4.28169 1.76895 4.28853 1.74307 4.30231 1.72023C4.31609 1.69739 4.33628 1.67846 4.36075 1.66544ZM4.73594 3.8785C3.72202 4.3752 2.9865 4.86392 2.49306 5.441C1.96831 6.0547 1.69629 6.79358 1.69629 7.81277C1.69629 8.68009 2.11215 9.29475 2.83867 9.70887C3.58564 10.1347 4.67562 10.3537 6 10.3537C7.32443 10.3537 8.4141 10.1346 9.16083 9.70736C9.8869 9.29191 10.3037 8.67384 10.3037 7.79838C10.3037 6.77909 10.0316 6.04042 9.50722 5.42874C9.0141 4.85356 8.27893 4.368 7.26531 3.87751C7.13746 4.00228 6.98855 4.10778 6.82385 4.18957C6.57045 4.31542 6.28751 4.38126 6.00012 4.38126C5.71273 4.38126 5.42978 4.31542 5.17638 4.18957C5.01212 4.108 4.86356 4.00284 4.73594 3.8785Z" fill="#222222"/>
</svg>