<svg xmlns="http://www.w3.org/2000/svg" width="32" height="32" viewBox="0 0 32 32" fill="none">
  <path d="M21 22.5H10.5V14.25H21M18.75 9V10.5H12.75V9H11.25V10.5H10.5C9.6675 10.5 9 11.1675 9 12V22.5C9 22.8978 9.15804 23.2794 9.43934 23.5607C9.72064 23.842 10.1022 24 10.5 24H21C21.3978 24 21.7794 23.842 22.0607 23.5607C22.342 23.2794 22.5 22.8978 22.5 22.5V12C22.5 11.6022 22.342 11.2206 22.0607 10.9393C21.7794 10.658 21.3978 10.5 21 10.5H20.25V9M19.5 17.25H15.75V21H19.5V17.25Z" fill="#777777"/>
</svg>