<svg xmlns="http://www.w3.org/2000/svg" width="32" height="32" viewBox="0 0 32 32" fill="none">
  <path fill-rule="evenodd" clip-rule="evenodd" d="M8.85572 8.85571C9.14861 8.56282 9.62348 8.56282 9.91638 8.85571L15.75 14.6893L21.5836 8.85571C21.8765 8.56282 22.3514 8.56282 22.6443 8.85571C22.9372 9.1486 22.9372 9.62348 22.6443 9.91637L16.8107 15.75L22.6443 21.5836C22.9372 21.8765 22.9372 22.3514 22.6443 22.6443C22.3514 22.9372 21.8765 22.9372 21.5836 22.6443L15.75 16.8107L9.91638 22.6443C9.62348 22.9372 9.14861 22.9372 8.85572 22.6443C8.56282 22.3514 8.56282 21.8765 8.85572 21.5836L14.6893 15.75L8.85572 9.91637C8.56282 9.62348 8.56282 9.1486 8.85572 8.85571Z" fill="#222222"/>
</svg>