<svg xmlns="http://www.w3.org/2000/svg"  viewBox="0 0 22 23" fill="currentColor">
  <path d="M12.0966 0.300678C12.4257 0.103763 12.8 0 13.1812 0C13.5623 0 13.9366 0.103763 14.2658 0.300678L14.2725 0.304598L20.9235 4.49527C21.2511 4.69201 21.5228 4.97316 21.7116 5.31081C21.9005 5.64846 21.9999 6.03087 22 6.42007V13.7861C22 14.5799 21.587 15.315 20.9168 15.7148L20.9149 15.7158L9.47706 22.6124L9.47323 22.6153C8.79828 23.0171 7.96463 23.0171 7.28968 22.6153L7.26482 22.6006L1.0478 18.1884C0.727893 17.9905 0.463315 17.7112 0.279731 17.3775C0.0961469 17.0439 -0.000212052 16.6673 3.50387e-07 16.2842V8.88194C3.50387e-07 8.49777 0.0956026 8.12731 0.271511 7.8039L0.274379 7.79802L0.287763 7.77253C0.4761 7.43736 0.746654 7.15805 1.0717 6.96204H1.07361L12.0966 0.300678ZM12.8203 1.56984L2.05449 8.07635L8.02773 12.2386C8.13922 12.3007 8.26442 12.3324 8.39131 12.3307C8.5182 12.329 8.64253 12.2939 8.75239 12.2288L19.8748 5.56057L13.5373 1.56788C13.428 1.50381 13.3043 1.47035 13.1784 1.47087C13.0525 1.47139 12.929 1.50488 12.8203 1.56984ZM7.66539 13.6763C7.535 13.6298 7.4092 13.5707 7.28968 13.4999L7.26769 13.4862L1.43403 9.42195V16.2852C1.43403 16.5547 1.57266 16.8027 1.79637 16.9359L1.82027 16.9497L7.66539 21.0972V13.6763ZM16.7314 9.14754L13.6243 11.0096V18.407L16.7314 16.5331V9.14754ZM9.47514 13.497L9.47323 13.4989C9.35429 13.5696 9.22914 13.6287 9.09943 13.6753V21.1354L12.1902 19.2714V11.8701L9.47514 13.497ZM18.1654 8.28706V15.6688L20.196 14.4437C20.3084 14.3769 20.4018 14.281 20.4667 14.1656C20.5317 14.0502 20.5659 13.9193 20.566 13.7861V6.84835L18.1654 8.28706Z" fill="#222222"/>
</svg>