<svg xmlns="http://www.w3.org/2000/svg"  viewBox="0 0 32 32" fill="none">
  <path d="M25.228 11.3322L25.228 11.3322C25.3142 11.4184 25.3826 11.5208 25.4293 11.6335C25.476 11.7461 25.5 11.8669 25.5 11.9888C25.5 12.1108 25.476 12.2316 25.4293 12.3442C25.3826 12.4569 25.3142 12.5593 25.228 12.6455L22.4466 15.426L22.2463 15.6263L22.315 15.901L23.0476 18.8295C23.0523 18.8483 23.0521 18.868 23.0469 18.8867C23.0417 18.9054 23.0318 18.9224 23.0181 18.9361L23.0179 18.9363L18.9365 23.0179L18.9365 23.0179L18.9334 23.021C18.9231 23.0316 18.9107 23.04 18.897 23.0457C18.8834 23.0515 18.8687 23.0545 18.8539 23.0545C18.8391 23.0546 18.8245 23.0518 18.8108 23.0461C18.7971 23.0405 18.7846 23.0322 18.7741 23.0217C18.7636 23.0113 18.7553 22.9988 18.7497 22.9851C18.744 22.9714 18.7412 22.9567 18.7412 22.9419C18.7413 22.9271 18.7442 22.9124 18.75 22.8988C18.7557 22.8851 18.7641 22.8727 18.7747 22.8623L18.7774 22.8597L22.6139 19.023L22.8141 18.8227L22.7454 18.548L22.275 16.6685L22.0606 15.812L21.4364 16.4363L12.645 25.2281L12.6444 25.2287C12.5585 25.3149 12.4564 25.3832 12.344 25.4298C12.2316 25.4764 12.111 25.5002 11.9894 25.5H11.9884H7.42849C7.18225 25.5 6.94609 25.4022 6.77196 25.228C6.59783 25.0539 6.5 24.8177 6.5 24.5714L6.5 20.0113L6.5 20.0103C6.49978 19.8886 6.52363 19.7681 6.57019 19.6557C6.61675 19.5432 6.6851 19.4411 6.7713 19.3552L6.77189 19.3546L19.3549 6.77203L19.3549 6.77199C19.4411 6.68576 19.5435 6.61736 19.6561 6.57069C19.7688 6.52402 19.8895 6.5 20.0115 6.5C20.1334 6.5 20.2541 6.52402 20.3668 6.57069C20.4794 6.61736 20.5818 6.68576 20.668 6.77199L20.668 6.77201L25.228 11.3322ZM7.57794 20.7985L6.72442 19.9452V21.1521V24.5714C6.72442 24.7582 6.7986 24.9372 6.93063 25.0693C7.06267 25.2013 7.24175 25.2755 7.42849 25.2755H10.8487H12.056L11.2022 24.4219L7.57794 20.7985ZM11.9727 24.875L12.3262 25.2285L12.6797 24.875L21.6098 15.9455L21.9634 15.5919L21.6098 15.2383L16.7611 10.3904L16.4076 10.0369L16.054 10.3904L7.12393 19.3199L6.77032 19.6735L7.12395 20.0271L11.9727 24.875ZM21.7679 15.0801L22.1215 15.4337L22.4751 15.0801L25.0686 12.4865C25.0687 12.4864 25.0688 12.4863 25.0688 12.4863C25.1342 12.4209 25.1861 12.3433 25.2215 12.2579C25.2569 12.1725 25.2751 12.0809 25.2751 11.9883C25.2751 11.8958 25.2569 11.8042 25.2215 11.7187C25.186 11.6333 25.1341 11.5556 25.0686 11.4902L20.5091 6.93144C20.509 6.93139 20.509 6.93134 20.5089 6.93129C20.5089 6.93126 20.5089 6.93123 20.5089 6.93121C20.4435 6.86586 20.366 6.814 20.2806 6.77861C20.1951 6.74317 20.1035 6.72494 20.0109 6.72494C19.9184 6.72494 19.8268 6.74317 19.7413 6.77861C19.6559 6.81401 19.5784 6.86587 19.513 6.93125C19.5129 6.93131 19.5129 6.93138 19.5128 6.93144L16.9203 9.52409L16.5668 9.8776L16.9203 10.2311L21.7679 15.0801Z" stroke="#6AB3AB"/>
</svg>