<svg xmlns="http://www.w3.org/2000/svg" width="32" height="32" viewBox="0 0 32 32" fill="none">
  <path d="M11.56 13.3473C11.6269 13.5484 11.6112 13.7679 11.5164 13.9575C11.4216 14.1471 11.2554 14.2913 11.0544 14.3585C10.8088 14.4361 10.5809 14.5617 10.384 14.7278C10.1871 14.8939 10.0251 15.0974 9.9072 15.3265C9.6096 15.8849 9.408 16.8033 9.5952 18.3025C9.6213 18.5132 9.56263 18.7256 9.4321 18.893C9.30158 19.0605 9.10989 19.1692 8.8992 19.1953C8.68851 19.2214 8.47609 19.1627 8.30865 19.0322C8.14122 18.9017 8.0325 18.71 8.0064 18.4993C7.7952 16.7985 7.992 15.5169 8.496 14.5745C9.008 13.6145 9.7872 13.0945 10.5472 12.8417C10.6469 12.8083 10.7522 12.7949 10.8571 12.8023C10.9619 12.8096 11.0643 12.8376 11.1584 12.8846C11.2525 12.9315 11.3363 12.9966 11.4052 13.0759C11.4742 13.1553 11.5267 13.2475 11.56 13.3473ZM19.4544 4.75848C19.5568 4.72745 19.6519 4.67621 19.7341 4.60778C19.8163 4.53935 19.884 4.45513 19.9331 4.3601C19.9822 4.26506 20.0117 4.16114 20.02 4.05449C20.0282 3.94784 20.015 3.84062 19.9811 3.73917C19.9471 3.63772 19.8932 3.5441 19.8225 3.46386C19.7517 3.38362 19.6656 3.31837 19.5692 3.27199C19.4728 3.22561 19.3681 3.19903 19.2613 3.19382C19.1544 3.18861 19.0476 3.20489 18.9472 3.24168C17.4464 3.74088 16.512 4.97288 15.9616 6.29288C15.8877 6.47131 15.8199 6.65221 15.7584 6.83528C15.4587 6.2675 15.0752 5.74808 14.6208 5.29448C14.0058 4.67817 13.2713 4.19417 12.4623 3.87224C11.6533 3.55031 10.7871 3.39725 9.9168 3.42248C8.9888 3.44808 8.248 4.19048 8.2224 5.11688C8.19696 5.99875 8.35459 6.87631 8.68533 7.69421C9.01606 8.5121 9.51273 9.25257 10.144 9.86888C8.79999 10.16 7.58542 10.8761 6.68002 11.9112C5.77463 12.9462 5.22651 14.2453 5.1168 15.6161L5.1072 15.7345C4.89597 18.37 5.45754 21.0099 6.7232 23.3313L7.2992 24.3841C7.3152 24.4113 7.3312 24.4385 7.3504 24.4641L8.9504 26.7073C9.31303 27.2151 9.78195 27.6379 10.3245 27.9461C10.8671 28.2544 11.4703 28.4407 12.0923 28.4922C12.7142 28.5437 13.3398 28.459 13.9257 28.2442C14.5116 28.0293 15.0436 27.6894 15.4848 27.2481C15.5526 27.1803 15.633 27.1265 15.7215 27.0898C15.8101 27.0532 15.905 27.0343 16.0008 27.0343C16.0966 27.0343 16.1915 27.0532 16.2801 27.0898C16.3686 27.1265 16.449 27.1803 16.5168 27.2481C16.958 27.6894 17.49 28.0293 18.0759 28.2442C18.6618 28.459 19.2874 28.5437 19.9093 28.4922C20.5313 28.4407 21.1345 28.2544 21.6771 27.9461C22.2197 27.6379 22.6886 27.2151 23.0512 26.7073L24.6512 24.4657C24.6699 24.4395 24.687 24.4123 24.7024 24.3841L25.2768 23.3313C26.5425 21.0099 27.104 18.37 26.8928 15.7345L26.8848 15.6161C26.814 14.7325 26.5604 13.8733 26.1402 13.0929C25.7199 12.3125 25.1421 11.6279 24.4434 11.0825C23.7447 10.537 22.9403 10.1427 22.0813 9.92443C21.2222 9.70616 20.3271 9.66872 19.4528 9.81448L16.8016 10.2561C16.8176 9.16648 17.0096 7.94088 17.44 6.90728C17.888 5.82728 18.5536 5.05928 19.4528 4.75848H19.4544ZM13.9504 10.0481L13.704 10.0065C12.7644 9.82521 11.901 9.3659 11.2256 8.68808C10.7633 8.22691 10.4003 7.67599 10.159 7.06924C9.91769 6.4625 9.80314 5.81277 9.8224 5.16008C9.82281 5.12329 9.83761 5.08812 9.86363 5.06211C9.88965 5.03609 9.92481 5.02129 9.9616 5.02088C10.6144 5.00182 11.2642 5.11663 11.871 5.35823C12.4777 5.59983 13.0286 5.96311 13.4896 6.42568C14.4608 7.39688 14.9296 8.67848 14.8928 9.95368C14.8924 9.99047 14.8776 10.0256 14.8516 10.0516C14.8256 10.0777 14.7904 10.0925 14.7536 10.0929C14.4851 10.1003 14.2164 10.0853 13.9504 10.0481Z" fill="#6AB3AB"/>
</svg>