<svg xmlns="http://www.w3.org/2000/svg" viewBox="0 0 32 32" fill="currentColor">
  <path fill-rule="evenodd" clip-rule="evenodd" d="M6.06667 11.0584L13.8893 4.63982C14.3891 4.22629 15.0177 4 15.6667 4C16.3156 4 16.9442 4.22629 17.444 4.63982L25.2653 11.0584C25.94 11.6112 26.3333 12.4505 26.3333 13.3364V25.0625C26.3333 26.6744 25.06 27.98 23.4893 27.98H7.844C6.27333 27.98 5 26.6744 5 25.0625V13.3364C5 12.4505 5.39333 11.6112 6.06667 11.0584ZM14.9042 5.87675L14.9042 5.87676L14.9093 5.87257C15.1221 5.6965 15.39 5.6 15.6667 5.6C15.9434 5.6 16.2112 5.6965 16.424 5.87257L16.424 5.87258L16.429 5.87666L24.2503 12.2952L24.2512 12.2959C24.5481 12.5392 24.7333 12.921 24.7333 13.3364V25.0625C24.7333 25.8293 24.1383 26.38 23.4893 26.38H7.844C7.195 26.38 6.6 25.8293 6.6 25.0625V13.3364C6.6 12.921 6.78527 12.5388 7.08157 12.2953L7.082 12.2949L14.9042 5.87675ZM13.4295 15.0498C13.4295 14.5532 13.0265 14.1506 12.5295 14.1506C12.0324 14.1506 11.6295 14.5532 11.6295 15.0498V15.6767C11.6295 16.1733 12.0324 16.5759 12.5295 16.5759C13.0265 16.5759 13.4295 16.1733 13.4295 15.6767V15.0498ZM19.704 15.0498C19.704 14.5532 19.301 14.1506 18.804 14.1506C18.3069 14.1506 17.904 14.5532 17.904 15.0498V15.6767C17.904 16.1733 18.3069 16.5759 18.804 16.5759C19.301 16.5759 19.704 16.1733 19.704 15.6767V15.0498ZM12.4379 20.5965C12.0386 20.3008 11.4749 20.3845 11.179 20.7835C10.883 21.1825 10.9668 21.7457 11.3661 22.0414C12.5792 22.9398 14.064 23.4721 15.6667 23.4721C17.2694 23.4721 18.7543 22.9398 19.9673 22.0414C20.3667 21.7457 20.4504 21.1825 20.1545 20.7835C19.8585 20.3845 19.2948 20.3008 18.8955 20.5965C17.9753 21.278 16.8625 21.6736 15.6667 21.6736C14.471 21.6736 13.3582 21.278 12.4379 20.5965Z" fill="#777777"/>
</svg>