<svg xmlns="http://www.w3.org/2000/svg" width="22" height="24" viewBox="0 0 22 24" fill="none">
  <path d="M9.39705 1.25813L9.39957 1.25604C9.7559 0.960972 10.204 0.799512 10.6667 0.799512C11.1293 0.799512 11.5774 0.960972 11.9338 1.25605L11.9362 1.25809L19.7576 7.68209L19.758 7.68245C20.2438 8.08091 20.5333 8.69219 20.5333 9.34388V21.0799C20.5333 22.2713 19.5985 23.1999 18.4893 23.1999H2.844C1.7348 23.1999 0.8 22.2713 0.8 21.0799V9.34388C0.8 8.69218 1.08951 8.08069 1.57438 7.68213C1.57442 7.68209 1.57447 7.68205 1.57451 7.68202C1.57454 7.682 1.57456 7.68198 1.57459 7.68195L9.39705 1.25813Z" stroke="#777777" stroke-width="1.6" stroke-linecap="round" stroke-linejoin="round"/>
</svg>