<svg xmlns="http://www.w3.org/2000/svg"  viewBox="0 0 13 15" fill="currentColor">
  <path d="M11.5556 13.5H1.44444V5.25H11.5556M9.38889 0V1.5H3.61111V0H2.16667V1.5H1.44444C0.642778 1.5 0 2.1675 0 3V13.5C0 13.8978 0.152182 14.2794 0.423068 14.5607C0.693954 14.842 1.06135 15 1.44444 15H11.5556C11.9386 15 12.306 14.842 12.5769 14.5607C12.8478 14.2794 13 13.8978 13 13.5V3C13 2.60218 12.8478 2.22064 12.5769 1.93934C12.306 1.65804 11.9386 1.5 11.5556 1.5H10.8333V0M10.1111 8.25H6.5V12H10.1111V8.25Z" fill="currentColor"/>
</svg>