<svg xmlns="http://www.w3.org/2000/svg"  viewBox="0 0 25 26" fill="currentColor">
  <path fill-rule="evenodd" clip-rule="evenodd" d="M0.984991 12.5386C0.984991 6.17901 6.14044 1.02356 12.5 1.02356C18.8596 1.02356 24.015 6.17901 24.015 12.5386C24.015 18.8981 18.8596 24.0536 12.5 24.0536C6.14044 24.0536 0.984991 18.8981 0.984991 12.5386ZM12.5 0.0385742C5.59644 0.0385742 0 5.63501 0 12.5386C0 19.4421 5.59644 25.0386 12.5 25.0386C19.4036 25.0386 25 19.4421 25 12.5386C25 5.63501 19.4036 0.0385742 12.5 0.0385742ZM19.5606 11.4779C19.8419 11.7592 20 12.1407 20 12.5386C20 12.9364 19.8419 13.3179 19.5606 13.5992C19.2793 13.8805 18.8978 14.0386 18.5 14.0386C18.1022 14.0386 17.7206 13.8805 17.4393 13.5992C17.158 13.3179 17 12.9364 17 12.5386C17 12.1407 17.158 11.7592 17.4393 11.4779C17.7206 11.1966 18.1022 11.0386 18.5 11.0386C18.8978 11.0386 19.2793 11.1966 19.5606 11.4779ZM7.5606 11.4779C7.8419 11.7592 7.99994 12.1407 7.99994 12.5386C7.99994 12.9364 7.8419 13.3179 7.5606 13.5992C7.27929 13.8805 6.89776 14.0386 6.49994 14.0386C6.10211 14.0386 5.72058 13.8805 5.43928 13.5992C5.15797 13.3179 4.99994 12.9364 4.99994 12.5386C4.99994 12.1407 5.15797 11.7592 5.43928 11.4779C5.72058 11.1966 6.10211 11.0386 6.49994 11.0386C6.89776 11.0386 7.27929 11.1966 7.5606 11.4779ZM14 12.5386C14 12.1407 13.842 11.7592 13.5607 11.4779C13.2794 11.1966 12.8978 11.0386 12.5 11.0386C12.1022 11.0386 11.7206 11.1966 11.4393 11.4779C11.158 11.7592 11 12.1407 11 12.5386C11 12.9364 11.158 13.3179 11.4393 13.5992C11.7206 13.8805 12.1022 14.0386 12.5 14.0386C12.8978 14.0386 13.2794 13.8805 13.5607 13.5992C13.842 13.3179 14 12.9364 14 12.5386Z" fill="currentColor"/>
</svg>