<svg xmlns="http://www.w3.org/2000/svg"  viewBox="0 0 14 14" fill="currentColor">
  <path fill-rule="evenodd" clip-rule="evenodd" d="M0.216151 12.7402C-0.0720503 13.0284 -0.0720503 13.4956 0.216151 13.7838C0.504352 14.072 0.971618 14.072 1.25982 13.7838L7 8.04366L12.7402 13.7839C13.0284 14.0721 13.4957 14.0721 13.7839 13.7839C14.0721 13.4956 14.0721 13.0284 13.7839 12.7402L8.04367 7L13.7838 1.25982C14.072 0.971619 14.072 0.504352 13.7838 0.216151C13.4956 -0.0720504 13.0284 -0.0720501 12.7402 0.216151L7 5.95633L1.25983 0.216158C0.971627 -0.0720428 0.504361 -0.0720428 0.21616 0.216158C-0.0720416 0.50436 -0.0720416 0.971626 0.21616 1.25983L5.95633 7L0.216151 12.7402Z" fill="currentColor"/>
</svg>