<svg xmlns="http://www.w3.org/2000/svg" viewBox="0 0 16 16" fill="currentColor">
  <path opacity="0.5" fill-rule="evenodd" clip-rule="evenodd" d="M8 16C12.4184 16 16 12.4184 16 8C16 3.5816 12.4184 0 8 0C3.5816 0 0 3.5816 0 8C0 12.4184 3.5816 16 8 16ZM4.91971 4.02384C4.67577 4.02384 4.44181 4.12093 4.26921 4.2938C4.09683 4.46687 4 4.70149 4 4.9461C4 5.19072 4.09683 5.42533 4.26921 5.59841L6.68711 8.02303L4.26921 10.4476C4.10661 10.6226 4.01809 10.8541 4.02229 11.0932C4.0265 11.3323 4.12311 11.5605 4.29177 11.7296C4.46042 11.8988 4.68796 11.9956 4.92643 11.9999C5.16491 12.0041 5.39571 11.9153 5.57021 11.7523L7.98811 9.32764L10.406 11.7523C10.5805 11.9153 10.8113 12.0041 11.0498 11.9999C11.2883 11.9956 11.5158 11.8988 11.6845 11.7296C11.8531 11.5605 11.9497 11.3323 11.9539 11.0932C11.9581 10.8541 11.8696 10.6226 11.707 10.4476L9.28912 8.02303L11.707 5.59841C11.7975 5.5139 11.87 5.41199 11.9203 5.29877C11.9706 5.18553 11.9977 5.0633 11.9999 4.93936C12.002 4.81542 11.9793 4.69231 11.933 4.57737C11.8867 4.46243 11.8178 4.35802 11.7304 4.27036C11.643 4.18271 11.5389 4.11361 11.4242 4.06718C11.3096 4.02076 11.1868 3.99796 11.0632 4.00014C10.9396 4.00233 10.8177 4.02946 10.7048 4.07991C10.5919 4.13036 10.4903 4.2031 10.406 4.2938L7.98811 6.71841L5.57021 4.2938C5.39761 4.12093 5.16365 4.02384 4.91971 4.02384Z" fill="currentColor"/>
</svg>