<svg xmlns="http://www.w3.org/2000/svg"  viewBox="0 0 20 20" fill="currentColor">
  <path d="M19.228 5.33219L19.228 5.33221C19.3142 5.41843 19.3826 5.5208 19.4293 5.63347C19.476 5.74614 19.5 5.86689 19.5 5.98885C19.5 6.1108 19.476 6.23156 19.4293 6.34422C19.3826 6.45689 19.3142 6.55926 19.228 6.64548L16.4466 9.42603L16.2463 9.62625L16.315 9.90098L17.0476 12.8295C17.0523 12.8483 17.0521 12.868 17.0469 12.8867C17.0417 12.9054 17.0318 12.9224 17.0181 12.9361L17.0179 12.9363L12.9365 17.0179L12.9365 17.0179L12.9334 17.021C12.9231 17.0316 12.9107 17.04 12.897 17.0457C12.8834 17.0515 12.8687 17.0545 12.8539 17.0545C12.8391 17.0546 12.8245 17.0518 12.8108 17.0461C12.7971 17.0405 12.7846 17.0322 12.7741 17.0217C12.7636 17.0113 12.7553 16.9988 12.7497 16.9851C12.744 16.9714 12.7412 16.9567 12.7412 16.9419C12.7413 16.9271 12.7442 16.9124 12.75 16.8988C12.7557 16.8851 12.7641 16.8727 12.7747 16.8623L12.7774 16.8597L16.6139 13.023L16.8141 12.8227L16.7454 12.548L16.275 10.6685L16.0606 9.812L15.4364 10.4363L6.64502 19.2281L6.64441 19.2287C6.55852 19.3149 6.45641 19.3832 6.34399 19.4298C6.23157 19.4764 6.11105 19.5002 5.98937 19.5H5.98844H1.42849C1.18225 19.5 0.946088 19.4022 0.77196 19.228C0.597831 19.0539 0.500002 18.8177 0.500002 18.5714L0.500003 14.0113L0.500002 14.0103C0.499776 13.8886 0.523631 13.7681 0.570193 13.6557C0.616754 13.5432 0.685101 13.4411 0.771296 13.3552L0.771894 13.3546L13.3549 0.772027L13.3549 0.771995C13.4411 0.685761 13.5435 0.617357 13.6561 0.570688C13.7688 0.52402 13.8895 0.5 14.0115 0.5C14.1334 0.5 14.2541 0.52402 14.3668 0.570688C14.4794 0.617358 14.5818 0.685762 14.668 0.771995L14.668 0.772013L19.228 5.33219ZM1.57794 14.7985L0.724423 13.9452V15.1521V18.5714C0.724423 18.7582 0.798596 18.9372 0.93063 19.0693C1.06267 19.2013 1.24175 19.2755 1.42849 19.2755H4.84871H6.05601L5.20222 18.4219L1.57794 14.7985ZM5.97265 18.875L6.32619 19.2285L6.67972 18.875L15.6098 9.94545L15.9634 9.59187L15.6098 9.23831L10.7611 4.39037L10.4076 4.03689L10.054 4.39039L1.12393 13.3199L0.770324 13.6735L1.12395 14.0271L5.97265 18.875ZM15.7679 9.08009L16.1215 9.43375L16.4751 9.08013L19.0686 6.48647C19.0687 6.4864 19.0688 6.48633 19.0688 6.48627C19.1342 6.42091 19.1861 6.34333 19.2215 6.25794C19.2569 6.17249 19.2751 6.08087 19.2751 5.98834C19.2751 5.8958 19.2569 5.80418 19.2215 5.71873C19.186 5.63327 19.1341 5.55561 19.0686 5.4902L14.5091 0.931445C14.509 0.931394 14.509 0.931343 14.5089 0.931293C14.5089 0.931264 14.5089 0.931235 14.5089 0.931206C14.4435 0.865857 14.366 0.814003 14.2806 0.77861C14.1951 0.743175 14.1035 0.724936 14.0109 0.724936C13.9184 0.724936 13.8268 0.743174 13.7413 0.77861C13.6559 0.814008 13.5784 0.865873 13.513 0.931246C13.5129 0.931312 13.5129 0.931378 13.5128 0.931445L10.9203 3.52409L10.5668 3.8776L10.9203 4.23114L15.7679 9.08009Z" stroke="#6AB3AB"/>
</svg>