<svg xmlns="http://www.w3.org/2000/svg"  viewBox="0 0 32 32" fill="currentColor">
  <path d="M25.265 11.0436L17.466 4.63863C17.458 4.63163 17.45 4.62563 17.443 4.61863C16.444 3.79363 14.886 3.79363 13.889 4.61963L6.066 11.0436C5.388 11.6006 5 12.4316 5 13.3236V25.0596C5 26.6686 6.275 27.9786 7.844 27.9786H23.489C25.057 27.9786 26.334 26.6686 26.334 25.0596V13.3236C26.333 12.4316 25.943 11.6006 25.265 11.0436ZM17.902 15.0386C17.902 14.5416 18.305 14.1386 18.802 14.1386C19.299 14.1386 19.702 14.5416 19.702 15.0386V15.6656C19.702 16.1626 19.299 16.5656 18.802 16.5656C18.305 16.5656 17.902 16.1626 17.902 15.6656V15.0386ZM11.629 15.0386C11.629 14.5416 12.032 14.1386 12.529 14.1386C13.026 14.1386 13.429 14.5416 13.429 15.0386V15.6656C13.429 16.1626 13.026 16.5656 12.529 16.5656C12.032 16.5656 11.629 16.1626 11.629 15.6656V15.0386ZM19.967 22.0366C18.702 22.9736 17.215 23.4686 15.666 23.4686C14.117 23.4686 12.63 22.9736 11.366 22.0366C10.967 21.7406 10.883 21.1766 11.178 20.7766C11.474 20.3766 12.037 20.2936 12.437 20.5886C12.862 20.9036 13.328 21.1376 13.812 21.3126C15.009 21.7456 16.325 21.7456 17.522 21.3126C18.004 21.1376 18.47 20.9046 18.895 20.5886C19.294 20.2926 19.859 20.3766 20.155 20.7766C20.451 21.1766 20.366 21.7406 19.967 22.0366Z" fill="currentColor"/>
</svg>