<svg xmlns="http://www.w3.org/2000/svg" viewBox="0 0 22 22" fill="currentColor">
  <path d="M12.0966 0.288651C12.4257 0.0996122 12.8 0 13.1812 0C13.5623 0 13.9366 0.0996122 14.2658 0.288651L14.2725 0.292414L20.9235 4.31546C21.2511 4.50433 21.5228 4.77423 21.7116 5.09837C21.9005 5.42252 21.9999 5.78963 22 6.16327V13.2346C22 13.9967 21.587 14.7024 20.9168 15.0862L20.9149 15.0872L9.47706 21.7079L9.47323 21.7107C8.79828 22.0964 7.96463 22.0964 7.28968 21.7107L7.26482 21.6966L1.0478 17.4609C0.727893 17.2709 0.463315 17.0027 0.279731 16.6824C0.0961469 16.3621 -0.000212052 16.0006 3.50387e-07 15.6328V8.52667C3.50387e-07 8.15786 0.0956026 7.80222 0.271511 7.49174L0.274379 7.48609L0.287763 7.46163C0.4761 7.13986 0.746654 6.87172 1.0717 6.68356H1.07361L12.0966 0.288651ZM12.8203 1.50704L2.05449 7.75329L8.02773 11.7491C8.13922 11.8087 8.26442 11.8391 8.39131 11.8375C8.5182 11.8358 8.64253 11.8022 8.75239 11.7396L19.8748 5.33815L13.5373 1.50516C13.428 1.44366 13.3043 1.41154 13.1784 1.41203C13.0525 1.41253 12.929 1.44468 12.8203 1.50704ZM7.66539 13.1293C7.535 13.0846 7.4092 13.0279 7.28968 12.9599L7.26769 12.9467L1.43403 9.04507V15.6338C1.43403 15.8925 1.57266 16.1306 1.79637 16.2585L1.82027 16.2717L7.66539 20.2533V13.1293ZM16.7314 8.78163L13.6243 10.5692V17.6707L16.7314 15.8718V8.78163ZM9.47514 12.9571L9.47323 12.959C9.35429 13.0268 9.22914 13.0835 9.09943 13.1283V20.29L12.1902 18.5005V11.3953L9.47514 12.9571ZM18.1654 7.95558V15.042L20.196 13.8659C20.3084 13.8018 20.4018 13.7098 20.4667 13.599C20.5317 13.4882 20.5659 13.3625 20.566 13.2346V6.57442L18.1654 7.95558Z" fill="currentColor"/>
</svg>