<svg xmlns="http://www.w3.org/2000/svg" viewBox="0 0 24 24" fill="currentColor">
  <path fill-rule="evenodd" clip-rule="evenodd" d="M12.6414 14.7491C12.5765 14.8254 12.483 14.8887 12.3705 14.9328C12.2579 14.9768 12.1302 15 12.0002 15C11.8703 15 11.7426 14.9768 11.63 14.9328C11.5175 14.8887 11.424 14.8254 11.3591 14.7491L7.09915 9.75189C7.0342 9.67569 7 9.58925 7 9.50126C7 9.41327 7.03419 9.32683 7.09915 9.25063C7.1641 9.17443 7.25753 9.11116 7.37003 9.06716C7.48254 9.02317 7.61016 9 7.74007 9H16.2599C16.3898 9 16.5175 9.02317 16.63 9.06716C16.7425 9.11116 16.8359 9.17443 16.9009 9.25063C16.9658 9.32683 17 9.41327 17 9.50126C17 9.58925 16.9658 9.67569 16.9008 9.75189L12.6414 14.7491Z" fill="currentColor"/>
</svg>