<svg xmlns="http://www.w3.org/2000/svg" width="18" height="18" viewBox="0 0 18 18" fill="currentColor">
  <path fill-rule="evenodd" clip-rule="evenodd" d="M8.30771 17.3077C8.30771 17.69 8.61766 18 9.00002 18C9.38237 18 9.69232 17.69 9.69232 17.3077V9.69231H17.3077C17.69 9.69231 18 9.38236 18 9.00001C18 8.61765 17.69 8.3077 17.3077 8.3077H9.69232V0.692308C9.69232 0.309957 9.38237 0 9.00002 0C8.61766 0 8.30771 0.309957 8.30771 0.692308V8.3077H0.692308C0.309957 8.3077 0 8.61765 0 9.00001C0 9.38236 0.309957 9.69231 0.692308 9.69231H8.30771V17.3077Z" fill="currentColor"/>
</svg>