<svg xmlns="http://www.w3.org/2000/svg"  viewBox="0 0 16 16" fill="currentColor">
  <path fill-rule="evenodd" clip-rule="evenodd" d="M7.11684 0.0385742C5.98189 0.0386709 4.86342 0.310179 3.85475 0.830447C2.84608 1.35072 1.97645 2.10466 1.31841 3.02937C0.660378 3.95408 0.233022 5.02275 0.0719994 6.14621C-0.0890236 7.26968 0.0209557 8.41536 0.392762 9.48768C0.764567 10.56 1.38742 11.5278 2.20935 12.3105C3.03128 13.0931 4.02846 13.6679 5.11768 13.9868C6.20691 14.3056 7.3566 14.3594 8.47084 14.1436C9.58508 13.9278 10.6316 13.4486 11.523 12.7461L14.5809 15.8041C14.7389 15.9567 14.9504 16.0411 15.1699 16.0391C15.3895 16.0372 15.5995 15.9492 15.7547 15.7939C15.91 15.6387 15.9981 15.4287 16 15.2091C16.0019 14.9896 15.9175 14.778 15.7649 14.6201L12.707 11.5621C13.5343 10.5126 14.0494 9.25139 14.1933 7.9228C14.3373 6.5942 14.1043 5.25191 13.521 4.04954C12.9378 2.84717 12.0278 1.83331 10.8952 1.12397C9.76262 0.414632 8.45321 0.0384845 7.11684 0.0385742ZM1.67409 7.15602C1.67409 5.71251 2.24752 4.32812 3.26823 3.30741C4.28895 2.2867 5.67333 1.71327 7.11684 1.71327C8.56034 1.71327 9.94473 2.2867 10.9654 3.30741C11.9862 4.32812 12.5596 5.71251 12.5596 7.15602C12.5596 8.59952 11.9862 9.98391 10.9654 11.0046C9.94473 12.0253 8.56034 12.5988 7.11684 12.5988C5.67333 12.5988 4.28895 12.0253 3.26823 11.0046C2.24752 9.98391 1.67409 8.59952 1.67409 7.15602Z" fill="#BDBDBD"/>
</svg>