<svg xmlns="http://www.w3.org/2000/svg"  viewBox="0 0 22 24" fill="currentColor">
  <path fill-rule="evenodd" clip-rule="evenodd" d="M1.1 7.06426L9.16713 0.640358C9.68256 0.226475 10.3308 0 11 0C11.6692 0 12.3174 0.226475 12.8329 0.640358L20.8986 7.06426C21.5944 7.61758 22 8.45757 22 9.34422V21.08C22 22.6934 20.6869 24 19.0671 24H2.93287C1.31312 24 0 22.6934 0 21.08V9.34422C0 8.45757 0.405625 7.61758 1.1 7.06426ZM2.09702 8.31564L2.09712 8.31556L10.1638 1.892L10.1638 1.89201L10.1689 1.88793C10.3965 1.7052 10.6902 1.6 11 1.6C11.3098 1.6 11.6035 1.7052 11.8311 1.88793L11.8311 1.88794L11.8361 1.89192L19.9018 8.31582L19.9027 8.31652C20.2177 8.56705 20.4 8.94644 20.4 9.34422V21.08C20.4 21.8028 19.8101 22.4 19.0671 22.4H2.93287C2.18987 22.4 1.6 21.8028 1.6 21.08V9.34422C1.6 8.94637 1.78237 8.56658 2.09669 8.3159L2.09702 8.31564ZM8.69294 11.0591C8.69294 10.562 8.27741 10.1591 7.76482 10.1591C7.25223 10.1591 6.83669 10.562 6.83669 11.0591V11.6865C6.83669 12.1836 7.25223 12.5865 7.76482 12.5865C8.27741 12.5865 8.69294 12.1836 8.69294 11.6865V11.0591ZM15.1635 11.0591C15.1635 10.562 14.748 10.1591 14.2354 10.1591C13.7228 10.1591 13.3073 10.562 13.3073 11.0591V11.6865C13.3073 12.1836 13.7228 12.5865 14.2354 12.5865C14.748 12.5865 15.1635 12.1836 15.1635 11.6865V11.0591ZM7.67041 16.6105C7.25861 16.3145 6.67734 16.3983 6.37211 16.7976C6.06689 17.1969 6.15329 17.7606 6.5651 18.0565C7.81609 18.9556 9.34734 19.4884 11.0001 19.4884C12.6529 19.4884 14.1841 18.9556 15.4351 18.0565C15.8469 17.7606 15.9333 17.1969 15.6281 16.7976C15.3229 16.3983 14.7416 16.3145 14.3298 16.6105C13.3808 17.2925 12.2332 17.6884 11.0001 17.6884C9.767 17.6884 8.61943 17.2925 7.67041 16.6105Z" fill="currentColor"/>
</svg>