<svg xmlns="http://www.w3.org/2000/svg"  viewBox="0 0 20 20" fill="currentColor">
  <path fill-rule="evenodd" clip-rule="evenodd" d="M13.488 0.000169029H6.90141C6.5956 -0.00398044 6.29417 0.0683369 6.02877 0.209594C5.7612 0.352001 5.54029 0.559138 5.38959 0.808918C5.23889 1.0587 5.16405 1.34176 5.17304 1.62791C5.18175 1.9048 5.26863 2.17454 5.42475 2.41024L6.43806 4.16198C6.45578 4.26846 6.49817 4.37314 6.56682 4.46867C6.61498 4.5357 6.66533 4.60119 6.71777 4.66506C4.66639 5.67841 3.03593 6.74457 1.89534 8.07848C0.618911 9.57126 0 11.3462 0 13.6255C0 15.8344 1.10654 17.4692 2.94858 18.5192C4.74969 19.5458 7.22159 20 10 20C12.7783 20 15.2508 19.5459 17.0524 18.515C18.8954 17.4605 20 15.8181 20 13.5968C20 11.3176 19.3812 9.54224 18.1041 8.05264C16.9713 6.73136 15.3558 5.67732 13.3252 4.68226L14.9251 2.36212C14.9363 2.34592 14.9466 2.32927 14.9562 2.31221C15.0898 2.07413 15.1559 1.80842 15.1483 1.54009C15.1407 1.27176 15.0596 1.00964 14.9128 0.7784C14.7659 0.547162 14.5581 0.354415 14.3088 0.218305C14.0596 0.0821954 13.7771 0.00699067 13.488 0.000169029ZM7.81358 5.59194C5.60829 6.64278 4.02761 7.664 2.98612 8.882C1.93662 10.1094 1.39257 11.5872 1.39257 13.6255C1.39257 15.3602 2.2243 16.5895 3.67733 17.4177C5.17129 18.2693 7.35124 18.7075 10 18.7075C12.6489 18.7075 14.8282 18.2693 16.3217 17.4147C17.7738 16.5838 18.6074 15.3477 18.6074 13.5968C18.6074 11.5582 18.0633 10.0808 17.0144 8.85747C15.9734 7.64325 14.3931 6.62871 12.1877 5.59146C12.1093 5.63696 12.0291 5.68009 11.9472 5.72074C11.3483 6.01819 10.6795 6.17382 10.0002 6.17382C9.32096 6.17382 8.65217 6.01819 8.05324 5.72074C7.97167 5.68023 7.89175 5.63726 7.81358 5.59194ZM12.6327 3.28878L13.7306 1.6966C13.7486 1.65804 13.7574 1.61622 13.7562 1.57405C13.7548 1.52499 13.74 1.47705 13.7131 1.43477C13.6863 1.39249 13.6483 1.35724 13.6027 1.33236C13.5589 1.30846 13.5096 1.29487 13.4589 1.29272L6.88243 1.2926C6.82604 1.2916 6.77042 1.30483 6.72149 1.33087C6.67257 1.35691 6.63217 1.39479 6.60462 1.44046C6.57706 1.48613 6.56338 1.53789 6.56502 1.59022C6.56667 1.64254 6.58358 1.69347 6.61396 1.73758C6.62347 1.75139 6.63242 1.76553 6.64077 1.77997L7.53642 3.32833C7.69416 3.38224 7.8356 3.48136 7.93601 3.6211C8.16261 3.93646 8.46958 4.19503 8.82967 4.37386C9.18976 4.5527 9.59184 4.64626 10.0002 4.64626C10.4086 4.64626 10.8107 4.5527 11.1708 4.37386C11.5309 4.19503 11.8379 3.93646 12.0645 3.6211C12.1996 3.43299 12.4092 3.31849 12.6327 3.28878Z" fill="currentColor"/>
</svg>