<svg xmlns="http://www.w3.org/2000/svg" viewBox="0 0 14 16" fill="currentColor">
  <path fill-rule="evenodd" clip-rule="evenodd" d="M6.54016 2.18591L6.54015 2.18226L6.54016 2.17866C6.53821 1.51618 6.01281 0.979751 5.36498 0.979751C4.71595 0.979751 4.1898 1.51818 4.1898 2.18236C4.1898 2.84655 4.71595 3.38498 5.36498 3.38498C6.01286 3.38498 6.53829 2.84847 6.54016 2.18591ZM7.40927 2.65285C7.19972 3.61051 6.36402 4.32616 5.36498 4.32616C4.36595 4.32616 3.53025 3.61051 3.3207 2.65285H0.459854C0.205884 2.65285 0 2.44216 0 2.18226C0 1.92236 0.205884 1.71167 0.459854 1.71167H3.32075C3.53037 0.75411 4.36602 0.0385742 5.36498 0.0385742C6.36394 0.0385742 7.19959 0.75411 7.40922 1.71167H13.5401C13.7941 1.71167 14 1.92236 14 2.18226C14 2.44216 13.7941 2.65285 13.5401 2.65285H7.40927ZM13.5401 8.50906C13.7941 8.50906 14 8.29837 14 8.03847C14 7.77857 13.7941 7.56788 13.5401 7.56788H11.4968C11.2872 6.61032 10.4515 5.89478 9.45255 5.89478C8.45359 5.89478 7.61794 6.61032 7.40831 7.56788H0.459854C0.205884 7.56788 0 7.77857 0 8.03847C0 8.29837 0.205884 8.50906 0.459854 8.50906H7.40827C7.61782 9.46672 8.45352 10.1824 9.45255 10.1824C10.4516 10.1824 11.2873 9.46672 11.4968 8.50906H13.5401ZM8.27737 8.03857L8.27737 8.03685C8.27827 7.37346 8.80407 6.83595 9.45255 6.83595C10.1016 6.83595 10.6277 7.37438 10.6277 8.03857C10.6277 8.70275 10.1016 9.24118 9.45255 9.24118C8.80352 9.24118 8.27737 8.70275 8.27737 8.03857ZM13.5401 14.3653C13.7941 14.3653 14 14.1546 14 13.8947C14 13.6348 13.7941 13.4241 13.5401 13.4241H6.59164C6.38202 12.4665 5.54636 11.751 4.5474 11.751C3.54843 11.751 2.71278 12.4665 2.50316 13.4241H0.459854C0.205884 13.4241 0 13.6348 0 13.8947C0 14.1546 0.205884 14.3653 0.459854 14.3653H2.50312C2.71267 15.3229 3.54837 16.0386 4.5474 16.0386C5.54643 16.0386 6.38212 15.3229 6.59168 14.3653H13.5401ZM3.37223 13.8888C3.37535 13.2274 3.9003 12.6922 4.5474 12.6922C5.19643 12.6922 5.72258 13.2306 5.72258 13.8948C5.72258 14.559 5.19643 15.0974 4.5474 15.0974C3.90025 15.0974 3.37528 14.5621 3.37223 13.9006C3.37225 13.8986 3.37226 13.8966 3.37226 13.8947C3.37226 13.8927 3.37225 13.8908 3.37223 13.8888Z" fill="currentColor" />
</svg>