<svg xmlns="http://www.w3.org/2000/svg"  viewBox="0 0 18 20" fill="currentColor">
  <path d="M7.31579 8.125C7.31579 8.10495 7.31202 8.08566 7.30527 8.06847C7.29854 8.05131 7.28932 8.03741 7.27939 8.02693C7.26951 8.0165 7.25926 8.00976 7.24997 8.0057C7.24076 8.00167 7.23191 8 7.22368 8C7.21546 8 7.20661 8.00167 7.1974 8.0057M7.31579 8.125L7.1974 8.0057M7.31579 8.125V15.375C7.31579 15.3951 7.31202 15.4143 7.30527 15.4315C7.29854 15.4487 7.28932 15.4626 7.27939 15.4731L7.61886 15.7947L7.27939 15.4731C7.26952 15.4835 7.25926 15.4902 7.24997 15.4943L7.45027 15.9524L7.24997 15.4943C7.24076 15.4983 7.23191 15.5 7.22368 15.5C7.21546 15.5 7.20661 15.4983 7.1974 15.4943C7.1881 15.4902 7.17785 15.4835 7.16798 15.4731L6.805 15.8169L7.16798 15.4731C7.15805 15.4626 7.14883 15.4487 7.1421 15.4315C7.13535 15.4143 7.13158 15.3951 7.13158 15.375V8.125C7.13158 8.10494 7.13535 8.08566 7.1421 8.06847C7.14883 8.05131 7.15805 8.03741 7.16798 8.02693C7.17786 8.0165 7.18811 8.00976 7.1974 8.0057M7.31579 8.125L6.9971 7.54757L7.1974 8.0057M6.60526 3.5V4H7.10526H10.8947H11.3947V3.5V3.25C11.3947 2.59542 11.1486 1.96257 10.7028 1.49191C10.256 1.02034 9.64412 0.75 9 0.75C8.35588 0.75 7.744 1.02034 7.29724 1.49191L7.66022 1.83579L7.29724 1.49191C6.85136 1.96257 6.60526 2.59542 6.60526 3.25V3.5ZM5.92105 4H6.42105V3.5V3.25C6.42105 2.51219 6.69897 1.80968 7.18583 1.29578C7.67182 0.782785 8.32501 0.5 9 0.5C9.67499 0.5 10.3282 0.782785 10.8142 1.29578C11.301 1.80968 11.5789 2.51219 11.5789 3.25V3.5V4H12.0789H17.4079C17.4233 4 17.444 4.00622 17.4636 4.02693C17.4841 4.04856 17.5 4.08339 17.5 4.125C17.5 4.16661 17.4841 4.20144 17.4636 4.22307C17.444 4.24378 17.4233 4.25 17.4079 4.25H16.0262H15.5643L15.5277 4.71041L14.5804 16.6384C14.5804 16.6384 14.5804 16.6384 14.5804 16.6384C14.5177 17.4269 14.1769 18.1565 13.6329 18.6845C13.0897 19.2118 12.3839 19.5 11.6564 19.5H6.34362C6.34361 19.5 6.34359 19.5 6.34358 19.5C5.61625 19.4999 4.91055 19.2117 4.36739 18.6844C3.82348 18.1563 3.48277 17.4268 3.42011 16.6384C3.42011 16.6384 3.42011 16.6384 3.42011 16.6384L2.47275 4.71041L2.43618 4.25H1.97432H0.592105C0.576668 4.25 0.556017 4.24378 0.536399 4.22307C0.515913 4.20144 0.5 4.16661 0.5 4.125C0.5 4.08339 0.515913 4.04856 0.5364 4.02693C0.556017 4.00622 0.576668 4 0.592105 4H5.92105ZM6.34354 19.25H6.34358H11.6564C11.6564 19.25 11.6564 19.25 11.6564 19.25C12.3544 19.2501 13.0219 18.9731 13.5279 18.482C14.0331 17.9917 14.3408 17.3239 14.3973 16.6131L14.3973 16.6131L15.3361 4.78958L15.379 4.25H14.8377H3.16232H2.62102L2.66389 4.7896L3.6032 16.6131L4.1 16.5736L3.6032 16.6131C3.65967 17.3238 3.96727 17.9915 4.47236 18.4818C4.97821 18.9729 5.64566 19.2499 6.34354 19.25ZM10.7763 8C10.7925 8 10.8122 8.0061 10.832 8.027C10.8522 8.04835 10.8684 8.08195 10.8684 8.125V15.375C10.8684 15.4166 10.8525 15.4514 10.832 15.4731C10.8124 15.4938 10.7918 15.5 10.7763 15.5C10.7609 15.5 10.7402 15.4938 10.7206 15.4731C10.7001 15.4514 10.6842 15.4166 10.6842 15.375V8.125C10.6842 8.08195 10.7004 8.04835 10.7207 8.027C10.7405 8.0061 10.7601 8 10.7763 8Z" stroke="currentColor"/>
</svg>