<svg xmlns="http://www.w3.org/2000/svg"  viewBox="0 0 32 32" fill="currentColor">
  <path fill-rule="evenodd" clip-rule="evenodd" d="M4.98499 15.5C4.98499 9.14044 10.1404 3.98499 16.5 3.98499C22.8596 3.98499 28.015 9.14044 28.015 15.5C28.015 21.8596 22.8596 27.015 16.5 27.015C10.1404 27.015 4.98499 21.8596 4.98499 15.5ZM16.5 3C9.59644 3 4 8.59644 4 15.5C4 22.4036 9.59644 28 16.5 28C23.4036 28 29 22.4036 29 15.5C29 8.59644 23.4036 3 16.5 3ZM23.5606 14.4393C23.8419 14.7206 24 15.1022 24 15.5C24 15.8978 23.8419 16.2794 23.5606 16.5607C23.2793 16.842 22.8978 17 22.5 17C22.1022 17 21.7206 16.842 21.4393 16.5607C21.158 16.2794 21 15.8978 21 15.5C21 15.1022 21.158 14.7206 21.4393 14.4393C21.7206 14.158 22.1022 14 22.5 14C22.8978 14 23.2793 14.158 23.5606 14.4393ZM11.5606 14.4393C11.8419 14.7206 11.9999 15.1022 11.9999 15.5C11.9999 15.8978 11.8419 16.2794 11.5606 16.5607C11.2793 16.842 10.8978 17 10.4999 17C10.1021 17 9.72058 16.842 9.43928 16.5607C9.15797 16.2794 8.99994 15.8978 8.99994 15.5C8.99994 15.1022 9.15797 14.7206 9.43928 14.4393C9.72058 14.158 10.1021 14 10.4999 14C10.8978 14 11.2793 14.158 11.5606 14.4393ZM18 15.5C18 15.1022 17.842 14.7206 17.5607 14.4393C17.2794 14.158 16.8978 14 16.5 14C16.1022 14 15.7206 14.158 15.4393 14.4393C15.158 14.7206 15 15.1022 15 15.5C15 15.8978 15.158 16.2794 15.4393 16.5607C15.7206 16.842 16.1022 17 16.5 17C16.8978 17 17.2794 16.842 17.5607 16.5607C17.842 16.2794 18 15.8978 18 15.5Z" fill="currentColor"/>
</svg>