<svg xmlns="http://www.w3.org/2000/svg"  viewBox="0 0 22 24" fill="currentColor">
  <path d="M20.8976 7.0499L12.8552 0.639194C12.8469 0.632188 12.8387 0.626183 12.8314 0.619177C11.8013 -0.206559 10.1946 -0.206559 9.1665 0.620177L1.09928 7.0499C0.400113 7.6074 0 8.43914 0 9.33193V21.0784C0 22.6888 1.3148 24 2.93278 24H19.0662C20.6831 24 22 22.6888 22 21.0784V9.33193C21.999 8.43914 21.5968 7.6074 20.8976 7.0499ZM13.3048 11.0485C13.3048 10.551 13.7204 10.1477 14.2329 10.1477C14.7454 10.1477 15.161 10.551 15.161 11.0485V11.676C15.161 12.1735 14.7454 12.5768 14.2329 12.5768C13.7204 12.5768 13.3048 12.1735 13.3048 11.676V11.0485ZM6.83594 11.0485C6.83594 10.551 7.25152 10.1477 7.76404 10.1477C8.27655 10.1477 8.69213 10.551 8.69213 11.0485V11.676C8.69213 12.1735 8.27655 12.5768 7.76404 12.5768C7.25152 12.5768 6.83594 12.1735 6.83594 11.676V11.0485ZM15.4342 18.0527C14.1297 18.9905 12.5963 19.486 10.999 19.486C9.40161 19.486 7.86819 18.9905 6.56473 18.0527C6.15328 17.7564 6.06665 17.1919 6.37086 16.7916C6.6761 16.3912 7.25668 16.3081 7.66917 16.6034C8.10743 16.9187 8.58798 17.1529 9.08709 17.3281C10.3215 17.7614 11.6785 17.7614 12.9129 17.3281C13.41 17.1529 13.8905 16.9197 14.3288 16.6034C14.7402 16.3071 15.3229 16.3912 15.6281 16.7916C15.9333 17.1919 15.8457 17.7564 15.4342 18.0527Z" fill="currentColor"/>
</svg>