<svg xmlns="http://www.w3.org/2000/svg"  viewBox="0 0 10 6" fill="currentColor">
  <path fill-rule="evenodd" clip-rule="evenodd" d="M5.64141 5.7491C5.57648 5.82538 5.48304 5.88872 5.37049 5.93277C5.25793 5.97681 5.13024 6 5.00025 6C4.87026 6 4.74256 5.97681 4.63001 5.93277C4.51745 5.88872 4.42401 5.82538 4.35909 5.7491L0.0991526 0.751888C0.0341969 0.675688 9.53674e-07 0.58925 0 0.501262C-9.53674e-07 0.413273 0.034194 0.326835 0.0991478 0.250634C0.164102 0.174434 0.257525 0.111156 0.37003 0.0671606C0.482535 0.0231652 0.610156 2.38419e-06 0.740067 0L9.25993 0C9.38984 2.38419e-06 9.51746 0.0231652 9.62997 0.0671606C9.74247 0.111156 9.8359 0.174434 9.90085 0.250634C9.96581 0.326835 10 0.413273 10 0.501262C10 0.58925 9.9658 0.675688 9.90085 0.751888L5.64141 5.7491Z" fill="currentColor"/>
</svg>