<svg xmlns="http://www.w3.org/2000/svg" viewBox="0 0 32 32"  stroke="currentColor" fill="currentColor" >
  <path d="M13.677 8.68421V9.18421H14.177H18.0048H18.5048V8.68421V8.42105C18.5048 7.74466 18.261 7.08751 17.8142 6.59607C17.366 6.10305 16.7473 5.81579 16.0909 5.81579C15.4345 5.81579 14.8158 6.10305 14.3676 6.59607C13.9209 7.08751 13.677 7.74466 13.677 8.42105V8.68421ZM12.9809 9.18421H13.4809V8.68421V8.42105C13.4809 7.63177 13.7663 6.88329 14.2617 6.33834C14.7557 5.79498 15.4149 5.5 16.0909 5.5C16.7669 5.5 17.4261 5.79498 17.9201 6.33834C18.4155 6.88329 18.701 7.63178 18.701 8.42105V8.68421V9.18421H19.201H24.5837C24.5935 9.18421 24.6138 9.18807 24.6367 9.21324C24.661 9.24 24.6818 9.28566 24.6818 9.3421C24.6818 9.39855 24.661 9.44421 24.6367 9.47097C24.6138 9.49614 24.5935 9.5 24.5837 9.5H23.188H22.7247L22.6895 9.962L21.7325 22.5178C21.7325 22.5178 21.7325 22.5178 21.7325 22.5178C21.6684 23.3595 21.3194 24.1351 20.7668 24.6941C20.2156 25.2517 19.5036 25.5527 18.7742 25.5526H13.4077C13.4077 25.5526 13.4077 25.5526 13.4077 25.5526C12.6784 25.5525 11.9665 25.2515 11.4153 24.6939C10.8628 24.135 10.5139 23.3595 10.4498 22.5178C10.4498 22.5178 10.4497 22.5178 10.4497 22.5178L9.49281 9.962L9.4576 9.5H8.99426H7.59809C7.58828 9.5 7.56803 9.49614 7.54515 9.47097C7.52082 9.44421 7.5 9.39855 7.5 9.3421C7.5 9.28566 7.52082 9.24 7.54515 9.21324C7.56803 9.18807 7.58828 9.18421 7.59809 9.18421H12.9809ZM13.4076 25.2368H13.4077H18.7741C18.7741 25.2368 18.7741 25.2368 18.7742 25.2368C19.4845 25.2369 20.1598 24.943 20.6684 24.4286C21.1756 23.9156 21.4816 23.2203 21.5378 22.4838L21.5378 22.4838L22.4861 10.038L22.5271 9.5H21.9876H10.1943H9.65469L9.69571 10.038L10.6445 22.4838L11.1431 22.4458L10.6445 22.4838C10.7007 23.2202 11.0066 23.9154 11.5137 24.4284C12.0222 24.9428 12.6973 25.2368 13.4076 25.2368ZM14.3813 13.4771C14.3899 13.4998 14.3947 13.5256 14.3947 13.5526V21.1842C14.3947 21.2112 14.3899 21.237 14.3813 21.2598C14.3727 21.2825 14.3613 21.3003 14.3496 21.3131C14.338 21.3258 14.3269 21.3331 14.3182 21.337C14.3097 21.3409 14.3025 21.3421 14.2967 21.3421C14.2908 21.3421 14.2836 21.3409 14.2751 21.337C14.2664 21.3331 14.2553 21.3258 14.2437 21.3131C14.232 21.3002 14.2206 21.2825 14.212 21.2598C14.2034 21.237 14.1986 21.2112 14.1986 21.1842V13.5526C14.1986 13.5256 14.2034 13.4998 14.212 13.4771C14.2206 13.4543 14.232 13.4366 14.2437 13.4238C14.2553 13.411 14.2664 13.4038 14.2751 13.3998C14.2836 13.3959 14.2908 13.3947 14.2967 13.3947C14.3026 13.3947 14.3097 13.3959 14.3182 13.3998C14.3269 13.4038 14.338 13.411 14.3496 13.4238C14.3613 13.4366 14.3727 13.4543 14.3813 13.4771ZM17.8852 13.3947C17.8957 13.3947 17.9149 13.3984 17.938 13.4238C17.9618 13.45 17.9833 13.4943 17.9833 13.5526V21.1842C17.9833 21.2407 17.9624 21.2863 17.9381 21.3131C17.9152 21.3382 17.895 21.3421 17.8852 21.3421C17.8754 21.3421 17.8551 21.3382 17.8322 21.3131C17.8079 21.2863 17.7871 21.2407 17.7871 21.1842V13.5526C17.7871 13.4943 17.8085 13.45 17.8323 13.4238C17.8554 13.3984 17.8747 13.3947 17.8852 13.3947Z"/>
</svg>