<svg xmlns="http://www.w3.org/2000/svg" viewBox="0 0 18 20" fill="currentColor">
  <path fill-rule="evenodd" clip-rule="evenodd" d="M0.935369 0.826109C1.53428 0.29716 2.34657 0 3.19355 0H14.8065C15.6534 0 16.4657 0.29716 17.0646 0.826109C17.6635 1.35506 18 2.07247 18 2.82051V3.84615C18 4.27099 17.6101 4.61539 17.129 4.61539C16.648 4.61539 16.2581 4.27099 16.2581 3.84615V2.82051C16.2581 2.48049 16.1051 2.1544 15.8329 1.91397C15.5607 1.67353 15.1914 1.53846 14.8065 1.53846H3.19355C2.80856 1.53846 2.43933 1.67353 2.1671 1.91397C1.89487 2.1544 1.74194 2.48049 1.74194 2.82051V17.1795C1.74194 17.5195 1.89487 17.8456 2.1671 18.086C2.43933 18.3265 2.80856 18.4615 3.19355 18.4615H14.8065C15.1914 18.4615 15.5607 18.3265 15.8329 18.086C16.1051 17.8456 16.2581 17.5195 16.2581 17.1795V16.1538C16.2581 15.729 16.648 15.3846 17.129 15.3846C17.6101 15.3846 18 15.729 18 16.1538V17.1795C18 17.9275 17.6635 18.6449 17.0646 19.1739C16.4657 19.7028 15.6534 20 14.8065 20H3.19355C2.34657 20 1.53427 19.7028 0.935369 19.1739C0.336462 18.6449 0 17.9275 0 17.1795V2.82051C0 2.07247 0.336462 1.35506 0.935369 0.826109ZM13.0293 6.37915C13.3694 6.07875 13.9209 6.07875 14.261 6.37915L17.7449 9.45607C18.085 9.75648 18.085 10.2435 17.7449 10.5439L14.261 13.6209C13.9209 13.9213 13.3694 13.9213 13.0293 13.6209C12.6892 13.3204 12.6892 12.8334 13.0293 12.533L15.0263 10.7692H9C8.51898 10.7692 8.12903 10.4248 8.12903 10C8.12903 9.57517 8.51898 9.23077 9 9.23077H15.0263L13.0293 7.46701C12.6892 7.1666 12.6892 6.67955 13.0293 6.37915Z" fill="currentColor"/>
</svg>