<svg xmlns="http://www.w3.org/2000/svg" viewBox="0 0 32 32" fill="currentColor">
  <path fill-rule="evenodd" clip-rule="evenodd" d="M16 29.3334C23.364 29.3334 29.3333 23.3641 29.3333 16.0001C29.3333 8.63608 23.364 2.66675 16 2.66675C8.63596 2.66675 2.66663 8.63608 2.66663 16.0001C2.66663 23.3641 8.63596 29.3334 16 29.3334ZM16 28.0001C18.2734 28.0037 20.5006 27.3585 22.42 26.1401C22.618 25.9087 22.82 25.6681 23.0246 25.4187C23.2233 25.1761 23.3333 24.8654 23.3333 24.5454C23.3355 24.2111 23.2166 23.8872 22.9986 23.6337C22.7806 23.3801 22.4782 23.2141 22.1473 23.1661C17.578 22.5334 14.436 22.4761 9.87263 23.1427C9.18263 23.2434 8.66663 23.8454 8.66663 24.5634C8.66569 24.8776 8.76831 25.1834 8.95863 25.4334C9.12329 25.6468 9.28529 25.8534 9.44529 26.0534C11.3938 27.3272 13.6721 28.0038 16 28.0001ZM22.33 21.8454C23.6026 22.0214 24.55 23.0627 24.6566 24.3107C26.8056 22.0782 28.0042 19.0988 28 16.0001C28 9.37275 22.6273 4.00008 16 4.00008C9.37263 4.00008 3.99996 9.37275 3.99996 16.0001C3.99572 19.0995 5.19484 22.0795 7.34463 24.3121C7.45663 23.0607 8.39996 22.0101 9.67996 21.8234C14.3833 21.1361 17.6526 21.1981 22.33 21.8454ZM19.7712 16.4381C18.771 17.4383 17.4144 18.0002 16 18.0002C14.5855 18.0002 13.2289 17.4383 12.2287 16.4381C11.2285 15.4379 10.6666 14.0813 10.6666 12.6668C10.6666 11.2523 11.2285 9.89579 12.2287 8.89559C13.2289 7.8954 14.5855 7.3335 16 7.3335C17.4144 7.3335 18.771 7.8954 19.7712 8.89559C20.7714 9.89579 21.3333 11.2523 21.3333 12.6668C21.3333 14.0813 20.7714 15.4379 19.7712 16.4381ZM17.5307 16.3623C17.0454 16.5634 16.5252 16.6668 16 16.6668C14.9391 16.6668 13.9217 16.2454 13.1715 15.4953C12.4214 14.7451 12 13.7277 12 12.6668C12 11.606 12.4214 10.5885 13.1715 9.8384C13.9217 9.08826 14.9391 8.66683 16 8.66683C16.5252 8.66683 17.0454 8.77029 17.5307 8.97131C18.016 9.17233 18.457 9.46697 18.8284 9.8384C19.1998 10.2098 19.4945 10.6508 19.6955 11.1361C19.8965 11.6214 20 12.1415 20 12.6668C20 13.1921 19.8965 13.7123 19.6955 14.1976C19.4945 14.6829 19.1998 15.1238 18.8284 15.4953C18.457 15.8667 18.016 16.1613 17.5307 16.3623Z" fill="currentColor"/>
</svg>