<svg xmlns="http://www.w3.org/2000/svg"  viewBox="0 0 6 10" fill="currentColor">
  <path fill-rule="evenodd" clip-rule="evenodd" d="M5.7491 4.35859C5.82538 4.42352 5.88872 4.51696 5.93277 4.62951C5.97681 4.74207 6 4.86976 6 4.99975C6 5.12974 5.97681 5.25744 5.93277 5.36999C5.88872 5.48255 5.82538 5.57599 5.7491 5.64091L0.751888 9.90085C0.675688 9.9658 0.58925 10 0.501262 10C0.413273 10 0.326835 9.96581 0.250634 9.90085C0.174434 9.8359 0.111156 9.74247 0.0671606 9.62997C0.0231652 9.51746 2.38419e-06 9.38984 0 9.25993L0 0.740067C2.38419e-06 0.610156 0.0231652 0.482535 0.0671606 0.370031C0.111156 0.257526 0.174434 0.164102 0.250634 0.0991479C0.326835 0.0341941 0.413273 -8.2507e-07 0.501262 0C0.58925 8.251e-07 0.675688 0.0341974 0.751888 0.0991526L5.7491 4.35859Z" fill="currentColor"/>
</svg>