<svg xmlns="http://www.w3.org/2000/svg"  viewBox="0 0 16 8" fill="currentColor">
  <path d="M7.25 7.78857H4.25C3.2125 7.78857 2.328 7.42282 1.5965 6.69132C0.865 5.95982 0.499501 5.07557 0.500001 4.03857C0.500001 3.00107 0.865751 2.11657 1.59725 1.38507C2.32875 0.653575 3.213 0.288075 4.25 0.288575H7.25V1.78857H4.25C3.625 1.78857 3.09375 2.00732 2.65625 2.44482C2.21875 2.88232 2 3.41357 2 4.03857C2 4.66357 2.21875 5.19482 2.65625 5.63232C3.09375 6.06982 3.625 6.28857 4.25 6.28857H7.25V7.78857ZM5 4.78857V3.28857H11V4.78857H5ZM8.75 7.78857V6.28857H11.75C12.375 6.28857 12.9063 6.06982 13.3438 5.63232C13.7813 5.19482 14 4.66357 14 4.03857C14 3.41357 13.7813 2.88232 13.3438 2.44482C12.9063 2.00732 12.375 1.78857 11.75 1.78857H8.75V0.288575H11.75C12.7875 0.288575 13.672 0.654325 14.4035 1.38582C15.135 2.11732 15.5005 3.00157 15.5 4.03857C15.5 5.07607 15.1343 5.96057 14.4028 6.69207C13.6713 7.42357 12.787 7.78907 11.75 7.78857H8.75Z" fill="currentColor"/>
</svg>