<svg xmlns="http://www.w3.org/2000/svg" viewBox="0 0 22 24" fill="currentColor">
  <path d="M6.53413 9.62733C6.60141 9.81803 6.58564 10.0261 6.49029 10.2059C6.39494 10.3856 6.2278 10.5224 6.02558 10.586C5.77852 10.6597 5.54935 10.7787 5.35131 10.9362C5.15327 11.0937 4.99027 11.2866 4.8717 11.5038C4.57237 12.0332 4.36959 12.9039 4.55788 14.3253C4.58413 14.5251 4.52512 14.7265 4.39384 14.8852C4.26255 15.044 4.06974 15.147 3.85783 15.1718C3.64591 15.1965 3.43225 15.1409 3.26384 15.0171C3.09543 14.8934 2.98607 14.7117 2.95982 14.5119C2.74739 12.8994 2.94534 11.6843 3.45228 10.7908C3.96726 9.88066 4.751 9.38765 5.51543 9.14797C5.61571 9.11634 5.72161 9.10365 5.8271 9.11063C5.93258 9.1176 6.03557 9.14411 6.13018 9.18863C6.22479 9.23315 6.30917 9.29481 6.37848 9.37008C6.44779 9.44536 6.50068 9.53277 6.53413 9.62733ZM14.4745 1.48434C14.5775 1.45492 14.6732 1.40634 14.7559 1.34147C14.8386 1.27659 14.9066 1.19674 14.956 1.10664C15.0054 1.01654 15.0351 0.918014 15.0434 0.816897C15.0517 0.71578 15.0384 0.614124 15.0043 0.517941C14.9701 0.421758 14.9159 0.333002 14.8447 0.256923C14.7736 0.180844 14.687 0.118988 14.59 0.075012C14.4931 0.0310364 14.3878 0.00583512 14.2803 0.000898955C14.1728 -0.00403721 14.0654 0.011392 13.9644 0.0462738C12.4548 0.519562 11.515 1.68761 10.9614 2.9391C10.887 3.10826 10.8189 3.27978 10.757 3.45334C10.4555 2.91503 10.0698 2.42258 9.61276 1.99252C8.99419 1.4082 8.25536 0.949323 7.44169 0.644103C6.62802 0.338882 5.75672 0.19377 4.88136 0.217689C3.94795 0.24196 3.20283 0.945825 3.17708 1.82414C3.1515 2.66023 3.31004 3.49225 3.64271 4.26769C3.97537 5.04313 4.47494 5.74516 5.10988 6.32948C3.75804 6.6055 2.53639 7.28442 1.62572 8.26576C0.715049 9.2471 0.163742 10.4787 0.0533877 11.7784L0.0437317 11.8906C-0.168728 14.3893 0.396115 16.8922 1.66915 19.0931L2.2485 20.0912C2.2646 20.117 2.28069 20.1428 2.3 20.1671L3.90932 22.2939C4.27407 22.7754 4.74572 23.1762 5.29147 23.4684C5.83722 23.7607 6.44396 23.9373 7.06949 23.9861C7.69502 24.0349 8.32432 23.9547 8.91361 23.751C9.5029 23.5473 10.038 23.225 10.4818 22.8066C10.5499 22.7423 10.6309 22.6914 10.7199 22.6566C10.809 22.6218 10.9044 22.6039 11.0008 22.6039C11.0972 22.6039 11.1926 22.6218 11.2817 22.6566C11.3708 22.6914 11.4517 22.7423 11.5198 22.8066C11.9636 23.225 12.4987 23.5473 13.088 23.751C13.6773 23.9547 14.3066 24.0349 14.9321 23.9861C15.5577 23.9373 16.1644 23.7607 16.7101 23.4684C17.2559 23.1762 17.7275 22.7754 18.0923 22.2939L19.7016 20.1686C19.7204 20.1438 19.7376 20.118 19.7531 20.0912L20.3309 19.0931C21.6039 16.8922 22.1687 14.3893 21.9563 11.8906L21.9482 11.7784C21.877 10.9407 21.622 10.1261 21.1992 9.38616C20.7765 8.64626 20.1954 7.99718 19.4926 7.48007C18.7898 6.96296 17.9808 6.58909 17.1167 6.38215C16.2526 6.17521 15.3523 6.13971 14.4729 6.2779L11.8063 6.69658C11.8224 5.66354 12.0155 4.50155 12.4484 3.52161C12.899 2.49766 13.5685 1.76953 14.4729 1.48434H14.4745ZM8.93846 6.49938L8.69062 6.45994C7.7456 6.28808 6.87712 5.85261 6.19778 5.20997C5.73281 4.77274 5.36771 4.25042 5.12498 3.67516C4.88226 3.09991 4.76703 2.48391 4.78641 1.8651C4.78682 1.83022 4.80171 1.79688 4.82788 1.77221C4.85404 1.74755 4.88941 1.73352 4.92642 1.73312C5.58303 1.71506 6.23661 1.82391 6.8469 2.05297C7.45719 2.28203 8.01126 2.62645 8.47497 3.065C9.45183 3.98579 9.92336 5.20087 9.88635 6.40988C9.88593 6.44476 9.87105 6.4781 9.84488 6.50276C9.81871 6.52743 9.78334 6.54146 9.74634 6.54185C9.47626 6.54889 9.20603 6.53468 8.93846 6.49938Z" fill="currentColor"/>
</svg>