<svg xmlns="http://www.w3.org/2000/svg"  viewBox="0 0 32 32" fill="currentColor">
  <path fill-rule="evenodd" clip-rule="evenodd" d="M15.6928 10.1473L15.6928 10.1437L15.6928 10.1401C15.6909 9.47763 15.1532 8.94118 14.4902 8.94118C13.826 8.94118 13.2876 9.47961 13.2876 10.1438C13.2876 10.808 13.826 11.3464 14.4902 11.3464C15.1532 11.3464 15.6909 10.8099 15.6928 10.1473ZM16.5822 10.6143C16.3678 11.5719 15.5126 12.2876 14.4902 12.2876C13.4679 12.2876 12.6127 11.5719 12.3982 10.6143H9.4706C9.21071 10.6143 9.00002 10.4036 9.00002 10.1437C9.00002 9.88379 9.21071 9.6731 9.4706 9.6731H12.3983C12.6128 8.71554 13.468 8 14.4902 8C15.5125 8 16.3677 8.71554 16.5822 9.6731H22.8562C23.1161 9.6731 23.3268 9.88379 23.3268 10.1437C23.3268 10.4036 23.1161 10.6143 22.8562 10.6143H16.5822ZM22.8562 16.4705C23.1161 16.4705 23.3268 16.2598 23.3268 15.9999C23.3268 15.74 23.1161 15.5293 22.8562 15.5293H20.7652C20.5507 14.5717 19.6955 13.8562 18.6732 13.8562C17.6509 13.8562 16.7958 14.5717 16.5813 15.5293H9.4706C9.21071 15.5293 9.00002 15.74 9.00002 15.9999C9.00002 16.2598 9.21071 16.4705 9.4706 16.4705H16.5812C16.7957 17.4281 17.6509 18.1438 18.6732 18.1438C19.6956 18.1438 20.5508 17.4281 20.7652 16.4705H22.8562ZM17.4706 16L17.4706 15.9983C17.4715 15.3349 18.0096 14.7974 18.6732 14.7974C19.3374 14.7974 19.8758 15.3358 19.8758 16C19.8758 16.6642 19.3374 17.2026 18.6732 17.2026C18.009 17.2026 17.4706 16.6642 17.4706 16ZM22.8562 22.3267C23.1161 22.3267 23.3268 22.116 23.3268 21.8561C23.3268 21.5962 23.1161 21.3855 22.8562 21.3855H15.7455C15.531 20.4279 14.6758 19.7124 13.6536 19.7124C12.6313 19.7124 11.7761 20.4279 11.5616 21.3855H9.4706C9.21071 21.3855 9.00002 21.5962 9.00002 21.8561C9.00002 22.116 9.21071 22.3267 9.4706 22.3267H11.5616C11.776 23.2843 12.6312 24 13.6536 24C14.6759 24 15.5311 23.2843 15.7456 22.3267H22.8562ZM12.451 21.862C12.4541 22.5235 12.9913 23.0588 13.6536 23.0588C14.3177 23.0588 14.8562 22.5204 14.8562 21.8562C14.8562 21.192 14.3177 20.6536 13.6536 20.6536C12.9914 20.6536 12.4542 21.1888 12.451 21.8503C12.451 21.8522 12.451 21.8542 12.451 21.8561C12.451 21.8581 12.451 21.86 12.451 21.862Z" fill="currentColor"/>
</svg>