<svg xmlns="http://www.w3.org/2000/svg" viewBox="0 0 20 5" fill="currentColor">
  <path fill-rule="evenodd" clip-rule="evenodd" d="M3.41421 3.45279C3.78929 3.07771 4 2.56901 4 2.03857C4 1.50814 3.78929 0.999434 3.41421 0.624361C3.03914 0.249288 2.53043 0.0385742 2 0.0385742C1.46957 0.0385742 0.960859 0.249288 0.585786 0.624361C0.210714 0.999434 0 1.50814 0 2.03857C0 2.56901 0.210714 3.07771 0.585786 3.45279C0.960859 3.82786 1.46957 4.03857 2 4.03857C2.53043 4.03857 3.03914 3.82786 3.41421 3.45279ZM20 2.03857C20 2.56901 19.7893 3.07771 19.4142 3.45279C19.0391 3.82786 18.5304 4.03857 18 4.03857C17.4696 4.03857 16.9609 3.82786 16.5858 3.45279C16.2107 3.07771 16 2.56901 16 2.03857C16 1.50814 16.2107 0.999434 16.5858 0.624361C16.9609 0.249288 17.4696 0.0385742 18 0.0385742C18.5304 0.0385742 19.0391 0.249288 19.4142 0.624361C19.7893 0.999434 20 1.50814 20 2.03857ZM12 2.03857C12 2.56901 11.7893 3.07771 11.4142 3.45279C11.0391 3.82786 10.5304 4.03857 10 4.03857C9.46957 4.03857 8.96086 3.82786 8.58579 3.45279C8.21071 3.07771 8 2.56901 8 2.03857C8 1.50814 8.21071 0.999434 8.58579 0.624361C8.96086 0.249288 9.46957 0.0385742 10 0.0385742C10.5304 0.0385742 11.0391 0.249288 11.4142 0.624361C11.7893 0.999434 12 1.50814 12 2.03857Z" fill="currentColor"/>
</svg>