<svg xmlns="http://www.w3.org/2000/svg" width="18" height="18" viewBox="0 0 18 18" fill="none">
  <path d="M8.25 12.75H5.25C4.2125 12.75 3.328 12.3843 2.5965 11.6528C1.865 10.9213 1.4995 10.037 1.5 9C1.5 7.9625 1.86575 7.078 2.59725 6.3465C3.32875 5.615 4.213 5.2495 5.25 5.25H8.25V6.75H5.25C4.625 6.75 4.09375 6.96875 3.65625 7.40625C3.21875 7.84375 3 8.375 3 9C3 9.625 3.21875 10.1562 3.65625 10.5938C4.09375 11.0312 4.625 11.25 5.25 11.25H8.25V12.75ZM6 9.75V8.25H12V9.75H6ZM9.75 12.75V11.25H12.75C13.375 11.25 13.9063 11.0312 14.3438 10.5938C14.7813 10.1562 15 9.625 15 9C15 8.375 14.7813 7.84375 14.3438 7.40625C13.9063 6.96875 13.375 6.75 12.75 6.75H9.75V5.25H12.75C13.7875 5.25 14.672 5.61575 15.4035 6.34725C16.135 7.07875 16.5005 7.963 16.5 9C16.5 10.0375 16.1343 10.922 15.4028 11.6535C14.6713 12.385 13.787 12.7505 12.75 12.75H9.75Z" fill="#222222"/>
</svg>