<svg xmlns="http://www.w3.org/2000/svg" width="32" height="32" viewBox="0 0 32 32" fill="none">
  <path fill-rule="evenodd" clip-rule="evenodd" d="M8.80546 6.80546C9.32118 6.28973 10.0207 6 10.75 6H20.75C21.4793 6 22.1788 6.28973 22.6945 6.80546C23.2103 7.32118 23.5 8.02065 23.5 8.75V9.75C23.5 10.1642 23.1642 10.5 22.75 10.5C22.3358 10.5 22 10.1642 22 9.75V8.75C22 8.41848 21.8683 8.10054 21.6339 7.86612C21.3995 7.6317 21.0815 7.5 20.75 7.5H10.75C10.4185 7.5 10.1005 7.6317 9.86612 7.86612C9.6317 8.10054 9.5 8.41848 9.5 8.75V22.75C9.5 23.0815 9.6317 23.3995 9.86612 23.6339C10.1005 23.8683 10.4185 24 10.75 24H20.75C21.0815 24 21.3995 23.8683 21.6339 23.6339C21.8683 23.3995 22 23.0815 22 22.75V21.75C22 21.3358 22.3358 21 22.75 21C23.1642 21 23.5 21.3358 23.5 21.75V22.75C23.5 23.4793 23.2103 24.1788 22.6945 24.6945C22.1788 25.2103 21.4793 25.5 20.75 25.5H10.75C10.0207 25.5 9.32118 25.2103 8.80546 24.6945C8.28973 24.1788 8 23.4793 8 22.75V8.75C8 8.02065 8.28973 7.32118 8.80546 6.80546ZM19.2197 12.2197C19.5126 11.9268 19.9874 11.9268 20.2803 12.2197L23.2803 15.2197C23.5732 15.5126 23.5732 15.9874 23.2803 16.2803L20.2803 19.2803C19.9874 19.5732 19.5126 19.5732 19.2197 19.2803C18.9268 18.9874 18.9268 18.5126 19.2197 18.2197L20.9393 16.5H15.75C15.3358 16.5 15 16.1642 15 15.75C15 15.3358 15.3358 15 15.75 15H20.9393L19.2197 13.2803C18.9268 12.9874 18.9268 12.5126 19.2197 12.2197Z" fill="#777777"/>
</svg>