<svg xmlns="http://www.w3.org/2000/svg" width="32" height="32" viewBox="0 0 32 32" fill="none">
  <path fill-rule="evenodd" clip-rule="evenodd" d="M15.1168 8C13.9819 8.0001 12.8634 8.27161 11.8548 8.79187C10.8461 9.31214 9.97645 10.0661 9.31841 10.9908C8.66038 11.9155 8.23302 12.9842 8.072 14.1076C7.91098 15.2311 8.02096 16.3768 8.39276 17.4491C8.76457 18.5214 9.38742 19.4893 10.2093 20.2719C11.0313 21.0546 12.0285 21.6293 13.1177 21.9482C14.2069 22.2671 15.3566 22.3208 16.4708 22.105C17.5851 21.8892 18.6316 21.4101 19.523 20.7076L22.5809 23.7656C22.7389 23.9181 22.9504 24.0025 23.1699 24.0006C23.3895 23.9987 23.5995 23.9106 23.7547 23.7554C23.91 23.6001 23.9981 23.3901 24 23.1705C24.0019 22.951 23.9175 22.7395 23.7649 22.5815L20.707 19.5236C21.5343 18.474 22.0494 17.2128 22.1933 15.8842C22.3373 14.5556 22.1043 13.2133 21.521 12.011C20.9378 10.8086 20.0278 9.79473 18.8952 9.08539C17.7626 8.37606 16.4532 7.99991 15.1168 8ZM9.67409 15.1174C9.67409 13.6739 10.2475 12.2895 11.2682 11.2688C12.2889 10.2481 13.6733 9.67469 15.1168 9.67469C16.5603 9.67469 17.9447 10.2481 18.9654 11.2688C19.9862 12.2895 20.5596 13.6739 20.5596 15.1174C20.5596 16.5609 19.9862 17.9453 18.9654 18.966C17.9447 19.9868 16.5603 20.5602 15.1168 20.5602C13.6733 20.5602 12.2889 19.9868 11.2682 18.966C10.2475 17.9453 9.67409 16.5609 9.67409 15.1174Z" fill="#BDBDBD"/>
</svg>