<svg xmlns="http://www.w3.org/2000/svg"  viewBox="0 0 24 24" fill="currentColor">
  <path fill-rule="evenodd" clip-rule="evenodd" d="M14.7491 11.3586C14.8254 11.4235 14.8887 11.517 14.9328 11.6295C14.9768 11.7421 15 11.8698 15 11.9998C15 12.1297 14.9768 12.2574 14.9328 12.37C14.8887 12.4825 14.8254 12.576 14.7491 12.6409L9.75189 16.9008C9.67569 16.9658 9.58925 17 9.50126 17C9.41327 17 9.32683 16.9658 9.25063 16.9009C9.17443 16.8359 9.11116 16.7425 9.06716 16.63C9.02317 16.5175 9 16.3898 9 16.2599V7.74007C9 7.61016 9.02317 7.48254 9.06716 7.37003C9.11116 7.25753 9.17443 7.1641 9.25063 7.09915C9.32683 7.03419 9.41327 7 9.50126 7C9.58925 7 9.67569 7.0342 9.75189 7.09915L14.7491 11.3586Z" fill="#777777"/>
</svg>