<svg width="256" height="256" viewBox="0 0 256 256" fill="none" xmlns="http://www.w3.org/2000/svg">
  <rect width="256" height="256" fill="#6AB3AB"/>
  <path d="M57.4174 60.7574C59.7324 62.191 62.1894 63.4647 65.0193 63.4829C72.9336 61.0012 81.0326 59.6694 89.263 59.1309C91.9189 56.6274 94.9442 54.6442 97.8663 52.5083C101.477 49.8665 105.273 48.8441 109.619 50.0849C110.681 50.3942 111.437 50.8199 111.568 51.937C111.792 53.8074 111.927 55.6741 112.101 57.5517C117.402 57.5517 122.703 57.5517 128.008 57.5517C133.316 57.5517 138.617 57.5517 143.915 57.5517C144.092 55.6741 144.231 53.8074 144.44 51.937C144.582 50.8199 145.338 50.3942 146.393 50.0849C150.742 48.8441 154.538 49.8665 158.145 52.5083C161.078 54.6442 164.096 56.6274 166.752 59.1309C174.993 59.6694 183.092 61.0049 190.999 63.4829C193.826 63.4647 196.276 62.191 198.591 60.7574C200.128 59.8295 200.1 58.3667 198.868 56.9949C198.016 56.0488 196.904 55.5394 195.772 55.1537C189.462 53.0141 182.943 51.8715 176.36 51.111C167.764 50.103 159.154 49.5063 150.512 49.0296C143.013 48.633 135.503 52.3483 128.008 52.3956C120.512 52.3483 113.006 48.633 105.504 49.0296C96.8615 49.5063 88.2511 50.103 79.655 51.111C73.0721 51.8715 66.5604 53.0141 60.2331 55.1537C59.1147 55.5358 57.9927 56.0488 57.1441 56.9949C55.9156 58.3631 55.8871 59.8295 57.4174 60.7574Z" fill="white"/>
  <path d="M87.8225 60.9796C86.807 61.4709 86.7502 65.9756 87.1017 67.0636C87.4532 68.1516 95.3854 68.7012 96.2624 68.0789C97.1642 67.4749 98.1797 61.7874 96.3369 61.3216C93.6953 60.6376 88.838 60.4775 87.8225 60.9796Z" fill="white"/>
  <path d="M191.372 172.075C191.954 170.798 192.494 169.346 192.934 167.661C193.126 167.032 196.282 153.514 209.579 157.568L212.395 95.8322C209.32 107.862 201.793 108.077 195.909 105.741C196.474 104.46 197.003 103.001 197.426 101.305C197.6 100.704 200.44 88.0998 212.626 90.7197L214 60.5835C214 60.5835 198.81 73.301 160.364 74.6655C146.264 74.6655 136.468 78.0422 128.003 78.0422C119.535 78.0422 109.732 74.6655 95.6501 74.6655C57.1931 73.301 42 60.5835 42 60.5835L43.6795 97.2477C43.8464 97.0476 44.0167 96.8838 44.1836 96.6691C44.5884 96.167 52.6768 85.3125 63.3855 94.8971C61.6138 96.3744 60.5699 97.8117 60.5451 97.859C54.2817 106.159 48.3734 105.58 43.9138 102.484L46.4632 158.204C49.7937 157.022 54.1254 157.171 58.9685 161.603C57.1789 163.058 56.1209 164.481 56.0925 164.532C52.9217 168.644 49.8682 170.518 47.049 170.991L47.578 182.617C47.6881 185.138 48.5262 187.133 50.1311 188.956C54.1717 193.533 59.4549 195.971 64.9335 198.038C75.7772 202.128 87.0363 204.191 98.4836 205.548C108.312 206.716 147.692 206.716 157.516 205.548C168.974 204.191 180.23 202.128 191.066 198.038C196.549 195.971 201.832 193.533 205.873 188.956C207.474 187.133 208.315 185.138 208.436 182.617L209.572 157.728C208.582 159.824 208.195 161.516 208.181 161.567C205.109 174.379 197.358 174.535 191.372 172.075ZM194.812 96.6145C193.737 98.7395 193.303 100.493 193.303 100.544C190.016 113.229 182.229 113.167 176.246 110.558C176.86 109.328 177.425 107.891 177.897 106.217C178.092 105.595 181.483 92.1788 194.812 96.6145ZM176.544 98.8414C175.39 100.897 174.918 102.655 174.893 102.691C171.247 115.176 163.428 114.801 157.506 111.959C158.145 110.737 158.745 109.343 159.263 107.702C159.487 107.072 163.268 93.8781 176.544 98.8414ZM158.244 101.006C157.044 103.001 156.526 104.718 156.512 104.769C152.507 117.05 144.663 116.38 138.776 113.342C139.461 112.141 140.122 110.777 140.676 109.165C140.903 108.557 145.054 95.5738 158.244 101.006ZM139.859 102.862C138.379 104.747 137.594 106.392 137.59 106.428C131.746 118.305 124.183 116.755 118.903 113.036C119.752 111.916 120.6 110.62 121.406 109.07C121.74 108.484 127.812 95.9304 139.859 102.862ZM119.248 104.274C117.575 105.992 116.659 107.542 116.638 107.578C109.743 118.724 102.347 116.34 97.4362 112.05C98.3842 111.039 99.3535 109.831 100.294 108.379C100.667 107.858 107.878 96.0251 119.248 104.274ZM99.3323 103.073C97.6315 104.722 96.6622 106.228 96.6409 106.268C89.465 117.144 82.1328 114.459 77.3217 109.976C78.2946 109.015 79.2924 107.858 80.276 106.428C80.6559 105.912 88.1619 94.3912 99.3323 103.073ZM62.2103 101.545C62.608 101.032 70.4194 89.8537 81.366 99.0089C79.612 100.57 78.6107 102.062 78.5752 102.087C71.1189 112.647 63.8542 109.656 59.178 104.98C60.1651 104.041 61.1877 102.917 62.2103 101.545ZM54.6474 171.635C55.6558 170.711 56.6855 169.597 57.7258 168.24C58.1235 167.731 66.0555 156.636 76.8991 165.919C75.1309 167.454 74.1119 168.939 74.0764 168.968C66.5136 179.437 59.2774 176.362 54.6474 171.635ZM72.745 176.846C73.7285 175.892 74.7335 174.742 75.7347 173.327C76.1182 172.81 83.7555 161.374 94.8229 170.187C93.1044 171.806 92.1172 173.313 92.0994 173.353C84.8064 184.145 77.5064 181.372 72.745 176.846ZM92.8345 179.156C93.7932 178.141 94.7731 176.955 95.7318 175.51C96.1081 174.979 103.447 163.24 114.731 171.62C113.041 173.316 112.111 174.855 112.086 174.892C105.066 185.95 97.7024 183.487 92.8345 179.156ZM113.719 180.372C114.579 179.262 115.434 177.974 116.265 176.427C116.606 175.845 122.809 163.36 134.778 170.423C133.283 172.297 132.484 173.935 132.477 173.971C126.505 185.783 118.957 184.145 113.719 180.372ZM151.985 172.537C147.848 184.767 140.008 184.014 134.157 180.903C134.853 179.713 135.531 178.356 136.102 176.755C136.337 176.147 140.626 163.211 153.76 168.793C152.535 170.776 151.999 172.476 151.985 172.537ZM153.813 179.731C154.467 178.516 155.081 177.122 155.62 175.488C155.848 174.87 159.775 161.723 172.994 166.832C171.818 168.884 171.325 170.62 171.3 170.66C167.526 183.104 159.711 182.639 153.813 179.731ZM189.962 167.494C186.539 180.146 178.753 179.993 172.802 177.315C173.43 176.085 174.006 174.659 174.503 172.989C174.701 172.377 178.238 159.001 191.517 163.586C190.417 165.693 189.962 167.443 189.962 167.494Z" fill="white"/>
  <path d="M159.661 61.3216C157.836 61.7911 158.852 67.4749 159.739 68.0789C160.631 68.7012 168.545 68.1516 168.904 67.0636C169.255 65.9756 169.198 61.4709 168.187 60.9796C167.182 60.4775 162.317 60.6376 159.661 61.3216Z" fill="white"/>
</svg>
