<svg xmlns="http://www.w3.org/2000/svg"  viewBox="0 0 80 80" fill="none">
  <path d="M40 0C17.9442 0 0 17.9442 0 40C0 62.0558 17.9442 80 40 80C62.0558 80 80 62.0558 80 40C80 17.9442 62.0558 0 40 0ZM30.3423 22.4654C32.7788 19.8827 36.2077 18.4615 40 18.4615C43.7923 18.4615 47.1904 19.8923 49.6365 22.4885C52.1154 25.1192 53.3212 28.6538 53.0365 32.4538C52.4673 40 46.6212 43.9583 40 43.9583C33.3788 43.9583 27.5212 40 26.9635 32.4519C26.6808 28.6212 27.8846 25.075 30.3423 22.4654ZM40 73.8462C35.4817 73.8491 31.0087 72.9448 26.8465 71.1867C22.6842 69.4287 18.9173 66.8527 15.7692 63.6115C17.5722 61.0403 19.8695 58.8542 22.5269 57.1808C27.4288 54.0385 33.6327 52.3077 40 52.3077C46.3673 52.3077 52.5711 54.0385 57.4673 57.1808C60.1269 58.8534 62.4262 61.0396 64.2308 63.6115C61.083 66.853 57.3161 69.4292 53.1538 71.1873C48.9915 72.9454 44.5184 73.8496 40 73.8462Z" fill="#BDBDBD"/>
</svg>