<svg xmlns="http://www.w3.org/2000/svg" viewBox="0 0 90 75" fill="none">
  <path d="M9.98585 60.3997C10.194 60.0703 10.5072 59.9026 10.9225 59.9026C11.2782 59.9026 11.5934 59.9713 11.8723 60.1107C12.1491 60.2502 12.2876 60.4825 12.2876 60.8059C12.2876 61.4384 12.2572 62.3265 12.1946 63.4683C12.132 64.5787 12.1026 65.4043 12.1026 65.9438C12.1026 66.7926 12.132 67.9262 12.1946 69.3458C12.2572 70.7038 12.2876 71.6981 12.2876 72.3306C12.2876 72.8408 12.2785 73.2177 12.2653 73.4663C12.2653 73.7128 12.1299 73.9553 11.8602 74.1948C11.5904 74.4332 11.1781 74.5525 10.6224 74.5525C10.3294 74.5525 10.0788 74.5019 9.86864 74.4039C9.66151 74.3019 9.51904 74.1908 9.44225 74.0665C8.71577 73.1864 7.65888 71.691 6.27058 69.5772C4.71051 67.2159 3.43842 65.4113 2.45226 64.1614C2.57452 65.2739 2.63718 66.6299 2.63718 68.2354C2.63718 68.9437 2.62604 69.8652 2.60381 71.0009C2.58057 72.1346 2.54622 72.8782 2.49873 73.2339C2.4381 73.6825 2.30272 74.025 2.09457 74.2645C1.88643 74.504 1.55805 74.6222 1.11044 74.6222C0.770939 74.6222 0.520371 74.5262 0.358706 74.3352C0.198051 74.1422 0.100031 73.8058 0.0697183 73.3279C0.0555726 72.6953 0.0919611 71.7476 0.184919 70.4815C0.201085 70.2805 0.224301 69.9329 0.255624 69.4388C0.285936 68.9447 0.300088 68.5062 0.300088 68.1192C0.300088 67.0552 0.246533 65.8357 0.138419 64.4635C0.0464721 62.951 0 61.8335 0 61.109C0 60.7372 0.135388 60.4533 0.404157 60.2512C0.674946 60.0501 0.985157 59.9511 1.34284 59.9511C1.65 59.9511 1.97434 60.0258 2.31384 60.1824C3.6405 61.8466 5.43802 64.3332 7.70639 67.6332L9.88178 70.9665C9.89592 70.718 9.90401 70.3724 9.90401 69.9248C9.90401 69.1377 9.88786 68.289 9.85856 67.3786C9.82825 66.4692 9.80298 65.8508 9.78782 65.5275C9.71103 64.0321 9.67364 62.7115 9.67364 61.5698C9.67263 61.1211 9.77669 60.7321 9.98585 60.3997Z" fill="#222222"/>
  <path d="M20.4325 64.6468C20.4325 65.5885 20.4951 66.9697 20.6194 68.7915C20.6355 69.0673 20.6659 69.6281 20.7113 70.4677C20.7578 71.3094 20.781 72.0773 20.781 72.7715C20.9346 72.7553 21.1003 72.7321 21.2781 72.7028C21.456 72.6704 21.5904 72.6553 21.6823 72.6553C22.0218 72.6553 22.2916 72.7411 22.4927 72.9099C22.6927 73.0796 22.7948 73.3423 22.7948 73.697C22.7948 73.9284 22.6998 74.1052 22.5159 74.2295C22.331 74.3517 22.0097 74.4406 21.557 74.4942C21.1013 74.5498 20.4416 74.575 19.5767 74.575C18.6218 74.575 17.9044 74.5457 17.4244 74.4821C16.9455 74.4204 16.6141 74.3012 16.4302 74.1244C16.2443 73.9486 16.1534 73.6818 16.1534 73.3272C16.1534 73.0635 16.2382 72.8846 16.407 72.7947C16.5777 72.7028 16.8152 72.6553 17.1244 72.6553L17.6114 72.6785L18.3753 72.724L18.2601 69.9928C18.1671 68.5136 18.1206 67.1546 18.1206 65.9209C18.1206 65.2591 18.1439 64.3467 18.1883 63.1887L18.2358 61.9177C17.7094 61.947 17.3012 61.9631 17.0082 61.9631C16.6697 61.9631 16.4413 61.9015 16.3241 61.7772C16.2089 61.6549 16.1523 61.4003 16.1523 61.0154C16.1523 60.5809 16.4484 60.3051 17.0435 60.1818C17.6377 60.0565 18.543 59.9949 19.7625 59.9949C20.7022 59.9949 21.4095 60.0242 21.8803 60.0878C22.3512 60.1494 22.5846 60.2879 22.5846 60.5041C22.5846 61.0295 22.4734 61.371 22.2491 61.5347C22.0248 61.6964 21.5974 61.7772 20.9649 61.7772L20.5032 61.7994C20.4557 62.7896 20.4325 63.7364 20.4325 64.6468Z" fill="#222222"/>
  <path d="M36.4939 72.3531C36.1867 72.8007 35.6542 73.2412 34.8974 73.6737C34.3892 73.9828 33.8011 74.2163 33.1393 74.3799C32.4755 74.5396 31.8036 74.6214 31.1256 74.6214C30.7103 74.6214 30.2263 74.5396 29.6797 74.3799C29.13 74.2163 28.6884 74.0586 28.3479 73.904L27.9569 73.5574C27.2607 72.9866 26.7768 72.5268 26.509 72.1793C26.2382 71.8327 26.1038 71.4053 26.1038 70.8961C26.1038 70.4939 26.1968 70.1938 26.3807 69.9917C26.5656 69.7917 26.8646 69.6916 27.283 69.6916C27.5002 69.6916 27.7003 69.7604 27.8862 69.8988C28.0731 70.0402 28.2327 70.2322 28.3722 70.4787C28.7571 71.1567 29.2159 71.6539 29.7484 71.9711C30.2808 72.2874 30.9073 72.445 31.6338 72.445C32.3148 72.445 32.9989 72.2379 33.694 71.8216C34.2639 71.4659 34.5508 71.1193 34.5508 70.7798C34.5508 70.1776 34.2841 69.6765 33.7516 69.2754C33.2212 68.8742 32.4603 68.5135 31.4711 68.1892C30.8699 67.9719 29.9686 67.5708 28.7642 66.9868C27.9468 66.5836 27.3355 66.0896 26.9354 65.5035C26.5353 64.9175 26.3332 64.3021 26.3332 63.6525C26.3332 63.0664 26.5373 62.4915 26.9455 61.9277C27.3557 61.3649 27.8528 60.9445 28.4399 60.6667C28.7471 60.5131 29.2432 60.3474 29.9212 60.1696C30.6001 59.9917 31.1084 59.9028 31.4489 59.9028C32.0814 59.9028 32.6301 59.9756 33.0918 60.1241C33.5556 60.2706 34.0103 60.4737 34.4579 60.7354C35.1369 61.1224 35.638 61.4679 35.9603 61.7771C36.2857 62.0853 36.4464 62.4723 36.4464 62.935C36.4464 63.2119 36.3433 63.4615 36.1341 63.6757C35.926 63.8929 35.5663 63.999 35.0601 63.999C34.9358 63.999 34.8115 63.9434 34.6883 63.8373C34.564 63.7292 34.4124 63.5666 34.2255 63.3524C33.9779 63.027 33.7405 62.8108 33.5091 62.7037C33.4465 62.6875 33.1948 62.5885 32.7563 62.4016C32.3168 62.2167 31.7722 62.1227 31.1245 62.1227C30.5062 62.1227 29.9596 62.2672 29.4816 62.5531C29.0037 62.8391 28.7642 63.2513 28.7642 63.7909C28.7642 64.3335 29.2502 64.772 30.2212 65.1094C31.2549 65.5126 32.1168 65.8592 32.8028 66.1522C33.4899 66.4452 34.1557 66.7928 34.8034 67.1929C35.544 67.6415 36.0897 68.1104 36.4342 68.6034C36.7828 69.0975 36.9566 69.7614 36.9566 70.595C36.9576 71.3204 36.803 71.9054 36.4939 72.3531Z" fill="#222222"/>
  <path d="M51.4156 65.1792V64.3012C51.4156 63.7152 51.3994 63.2736 51.3691 62.9806C51.3378 62.734 51.3226 62.0924 51.3226 61.0608C51.3226 60.69 51.4348 60.4 51.6571 60.1929C51.8824 59.9857 52.1855 59.8796 52.5715 59.8796C53.0646 59.8796 53.397 59.9857 53.5678 60.202C53.7365 60.4192 53.8213 60.7738 53.8213 61.2679V62.146L53.7991 64.6932C53.782 65.1893 53.7759 65.93 53.7759 66.9151L53.7991 68.8137C53.8133 69.1067 53.8213 69.5149 53.8213 70.0413C53.8213 70.4566 53.8355 71.0507 53.8678 71.8227C53.8972 72.531 53.9143 73.0644 53.9143 73.4191C53.9143 73.7131 53.8345 73.9829 53.6708 74.2304C53.5091 74.477 53.2909 74.5992 53.012 74.5992C51.9329 74.5992 51.3923 74.2365 51.3923 73.5121C51.3923 73.1119 51.4065 72.6633 51.4378 72.1702C51.4701 71.8146 51.4843 71.274 51.4843 70.5495C51.4843 70.0413 51.4701 69.3067 51.4378 68.3509C50.7113 68.4125 49.4635 68.4428 47.6892 68.4428C46.5788 68.4428 45.7138 68.4398 45.0965 68.4317C44.4801 68.4226 44.0315 68.3893 43.7557 68.3267L43.7325 70.9891C43.7325 71.1578 43.7719 71.6125 43.8477 72.3531C43.9244 72.8472 43.9628 73.2786 43.9628 73.6495C43.9628 73.8818 43.8274 74.1011 43.5587 74.3082C43.2879 74.5164 43.0373 74.6215 42.8069 74.6215C42.2512 74.6215 41.8733 74.4861 41.6722 74.2163C41.4722 73.9485 41.3721 73.5333 41.3721 72.9785L41.3499 71.1507C41.3327 70.9335 41.3267 70.6334 41.3267 70.2484C41.3267 69.6765 41.3105 68.8965 41.2802 67.9093C41.2489 67.0161 41.2347 66.3674 41.2347 65.9663C41.2347 65.3641 41.2489 64.5235 41.2802 63.4444C41.3105 62.4239 41.3267 61.6701 41.3267 61.176C41.3267 60.6819 41.4489 60.3505 41.6965 60.1818C41.943 60.011 42.2209 59.9261 42.5291 59.9261C43.393 59.9261 43.8254 60.2121 43.8254 60.783C43.8254 61.8004 43.8022 62.7745 43.7567 63.699C43.7244 64.871 43.7102 65.7269 43.7102 66.2674C44.1558 66.3776 44.6266 66.4453 45.1207 66.4746C45.6158 66.5069 46.309 66.5221 47.2052 66.5221C49.024 66.5221 50.4355 66.4453 51.4388 66.2907C51.4217 66.0451 51.4156 65.6723 51.4156 65.1792Z" fill="#222222"/>
  <path d="M80.8679 73.117C80.9538 73.2413 80.9963 73.4191 80.9963 73.6495C80.9963 73.9435 80.8831 74.1769 80.6608 74.3568C80.4365 74.5326 80.1768 74.6215 79.8858 74.6215C79.5443 74.6215 79.1594 74.5376 78.7279 74.3658C77.864 73.9819 77.0203 73.2685 76.1938 72.2268C75.3673 71.1851 74.3761 69.6857 73.2212 67.7255C72.3421 68.4045 71.4459 69.0359 70.5355 69.622C70.5355 69.9473 70.5487 70.3222 70.5709 70.7466C70.5931 71.1709 70.6062 71.4832 70.6062 71.6822C70.6366 72.5784 70.6507 73.1725 70.6507 73.4666C70.6507 73.7273 70.5669 73.9778 70.3971 74.2163C70.2264 74.4568 69.9717 74.575 69.6332 74.575C69.1391 74.575 68.7835 74.4942 68.5672 74.3345C68.352 74.1708 68.2207 73.9354 68.1742 73.6272C68.0499 72.8543 67.9893 72.1167 67.9893 71.4063C67.9893 70.6051 68.0499 69.4472 68.1742 67.9326C68.2965 66.4837 68.3591 65.3965 68.3591 64.67C68.3591 64.3931 68.3429 63.991 68.3126 63.4676C68.2964 63.0503 68.25 62.6653 68.1742 62.3097C68.1136 61.8156 68.0813 61.467 68.0813 61.2679C68.0813 60.7749 68.1873 60.4192 68.4045 60.202C68.6208 59.9857 68.9532 59.8796 69.3988 59.8796C69.7383 59.8796 70.0223 59.9756 70.2445 60.1686C70.4678 60.3616 70.5961 60.6183 70.6275 60.9446C70.7022 62.2571 70.7417 63.2675 70.7417 63.9758C70.7245 64.3608 70.7002 64.9135 70.6618 65.6319C70.6224 66.3483 70.589 66.7999 70.5567 66.9868C71.0811 66.6938 72.1107 65.8481 73.6476 64.4517C75.1834 63.0543 76.2736 61.957 76.9233 61.1517L77.2234 60.8052C77.4679 60.4829 77.6781 60.2575 77.8478 60.1353C78.0166 60.011 78.2489 59.9494 78.543 59.9494C78.837 59.9494 79.1007 60.0464 79.3402 60.2373C79.5786 60.4313 79.6989 60.6577 79.6989 60.9204C79.6989 61.4296 79.4372 61.9469 78.9128 62.4724C77.6316 63.799 76.3514 65.0317 75.0702 66.1735C76.8748 69.5543 78.6885 71.7661 80.5093 72.8159C80.6639 72.8937 80.7851 72.9937 80.8679 73.117Z" fill="#222222"/>
  <path d="M87.6145 64.6468C87.6145 65.8976 87.6529 67.2779 87.7297 68.7915C87.7923 70.5799 87.8236 71.9065 87.8236 72.7715C88.4076 72.6947 88.7633 72.6553 88.8865 72.6553C89.227 72.6553 89.4969 72.7411 89.6979 72.9099C89.899 73.0796 90.0001 73.3423 90.0001 73.697C90.0001 73.9284 89.9061 74.1052 89.7222 74.2295C89.5363 74.3517 89.216 74.4406 88.7613 74.4942C88.3066 74.5498 87.6468 74.575 86.7829 74.575C85.825 74.575 85.1077 74.5457 84.6297 74.4821C84.1518 74.4204 83.8194 74.3012 83.6355 74.1244C83.4506 73.9486 83.3587 73.6818 83.3587 73.3272C83.3587 73.0635 83.4425 72.8846 83.6113 72.7947C83.783 72.7028 84.0215 72.6553 84.3306 72.6553L84.8167 72.6785L85.5785 72.724L85.4633 69.9928C85.3713 68.5136 85.3249 67.1546 85.3249 65.9209C85.3249 65.2591 85.3471 64.3467 85.3956 63.1887L85.4401 61.9177C84.9157 61.947 84.5075 61.9631 84.2145 61.9631C83.875 61.9631 83.6456 61.9015 83.5304 61.7772C83.4152 61.6549 83.3576 61.4003 83.3576 61.0154C83.3576 60.5809 83.6527 60.3051 84.2478 60.1818C84.8409 60.0565 85.7482 59.9949 86.9668 59.9949C87.9085 59.9949 88.6127 60.0242 89.0856 60.0878C89.5544 60.1494 89.7909 60.2879 89.7909 60.5041C89.7909 61.0295 89.6787 61.371 89.4554 61.5347C89.2311 61.6964 88.8027 61.7772 88.1712 61.7772L87.7074 61.7994C87.6458 63.1291 87.6145 64.0759 87.6145 64.6468Z" fill="#222222"/>
  <path d="M62.0379 64.6468C62.0379 65.8976 62.0764 67.2779 62.1531 68.7915C62.2158 70.5799 62.2471 71.9065 62.2471 72.7715C62.8311 72.6947 63.1867 72.6553 63.31 72.6553C63.6485 72.6553 63.9203 72.7411 64.1214 72.9099C64.3225 73.0796 64.4215 73.3423 64.4215 73.697C64.4215 73.9284 64.3295 74.1052 64.1436 74.2295C63.9587 74.3517 63.6394 74.4406 63.1848 74.4942C62.7301 74.5498 62.0693 74.575 61.2064 74.575C60.2485 74.575 59.5311 74.5457 59.0532 74.4821C58.5752 74.4204 58.2429 74.3012 58.0569 74.1244C57.8741 73.9486 57.7801 73.6818 57.7801 73.3272C57.7801 73.0635 57.8659 72.8846 58.0347 72.7947C58.2064 72.7028 58.4449 72.6553 58.7541 72.6553L59.2381 72.6785L60.002 72.724L59.8868 69.9928C59.7948 68.5136 59.7484 67.1546 59.7484 65.9209C59.7484 65.2591 59.7706 64.3467 59.8191 63.1887L59.8635 61.9177C59.3391 61.947 58.931 61.9631 58.6379 61.9631C58.2984 61.9631 58.0691 61.9015 57.9539 61.7772C57.8387 61.6549 57.7791 61.4003 57.7791 61.0154C57.7791 60.5809 58.0761 60.3051 58.6712 60.1818C59.2643 60.0565 60.1697 59.9949 61.3903 59.9949C62.33 59.9949 63.0362 60.0242 63.5091 60.0878C63.9779 60.1494 64.2144 60.2879 64.2144 60.5041C64.2144 61.0295 64.1022 61.371 63.8789 61.5347C63.6546 61.6964 63.2261 61.7772 62.5946 61.7772L62.1309 61.7994C62.0672 63.1291 62.0379 64.0759 62.0379 64.6468Z" fill="#222222"/>
  <path d="M24.9115 3.26476C25.5703 3.66286 26.2695 4.01653 27.0748 4.02158C29.327 3.33248 31.6317 2.96266 33.9738 2.81312C34.7296 2.11796 35.5905 1.56728 36.4221 0.974171C37.4497 0.240615 38.5298 -0.0432939 39.7665 0.301255C40.0686 0.387139 40.2838 0.50536 40.3212 0.815555C40.3849 1.3349 40.4233 1.85324 40.4728 2.37461C41.9813 2.37461 43.4898 2.37461 44.9994 2.37461C46.5099 2.37461 48.0185 2.37461 49.5261 2.37461C49.5766 1.85324 49.616 1.3349 49.6756 0.815555C49.716 0.50536 49.9312 0.387139 50.2313 0.301255C51.4691 -0.0432939 52.5492 0.240615 53.5758 0.974171C54.4104 1.56728 55.2692 2.11796 56.025 2.81312C58.3702 2.96266 60.6749 3.33349 62.925 4.02158C63.7293 4.01653 64.4265 3.66286 65.0853 3.26476C65.5228 3.00711 65.5147 2.60093 65.1641 2.22C64.9216 1.9573 64.6053 1.81586 64.283 1.70876C62.4875 1.11464 60.6324 0.797347 58.7592 0.586172C56.313 0.306289 53.8627 0.140591 51.4034 0.00822819C49.2694 -0.101906 47.1324 0.929738 44.9994 0.942873C42.8664 0.929738 40.7305 -0.101906 38.5955 0.00822819C36.1361 0.140591 33.6859 0.306289 31.2397 0.586172C29.3664 0.797347 27.5133 1.11464 25.7128 1.70876C25.3945 1.81485 25.0752 1.9573 24.8337 2.22C24.4841 2.59992 24.476 3.00711 24.9115 3.26476Z" fill="#6AB3AB"/>
  <path d="M33.5657 3.3264C33.2767 3.4628 33.2605 4.71368 33.3605 5.01579C33.4606 5.31791 35.7178 5.4705 35.9674 5.29772C36.2241 5.12999 36.513 3.5507 35.9886 3.42137C35.2369 3.23141 33.8546 3.18696 33.5657 3.3264Z" fill="#6AB3AB"/>
  <path d="M63.0322 34.175C63.1979 33.8204 63.3515 33.4172 63.4768 32.9494C63.5314 32.7746 64.4296 29.021 68.2136 30.1465L69.0148 13.004C68.1398 16.3444 65.9977 16.404 64.3235 15.7553C64.4841 15.3996 64.6347 14.9945 64.7549 14.5236C64.8044 14.3569 65.6128 10.8569 69.0805 11.5844L69.4715 3.21619C69.4715 3.21619 65.149 6.74755 54.2083 7.12646C50.196 7.12646 47.4083 8.06409 44.9995 8.06409C42.5896 8.06409 39.7999 7.12646 35.7926 7.12646C24.8489 6.74755 20.5254 3.21619 20.5254 3.21619L21.0033 13.397C21.0508 13.3415 21.0993 13.296 21.1468 13.2364C21.262 13.0969 23.5637 10.0829 26.6111 12.7443C26.1069 13.1545 25.8098 13.5536 25.8028 13.5668C24.0204 15.8715 22.3391 15.7109 21.07 14.851L21.7955 30.3234C22.7433 29.995 23.9759 30.0364 25.3541 31.2671C24.8449 31.6713 24.5438 32.0663 24.5357 32.0805C23.6334 33.2222 22.7644 33.7426 21.9622 33.8739L22.1127 37.1022C22.144 37.8024 22.3826 38.3561 22.8393 38.8623C23.9891 40.1334 25.4925 40.8104 27.0516 41.3843C30.1374 42.52 33.3414 43.0929 36.599 43.4698C39.3958 43.7941 50.6022 43.7941 53.398 43.4698C56.6585 43.0929 59.8616 42.52 62.9453 41.3843C64.5054 40.8104 66.0089 40.1334 67.1587 38.8623C67.6144 38.3561 67.8539 37.8024 67.8882 37.1022L68.2115 30.191C67.9296 30.773 67.8195 31.2428 67.8155 31.257C66.9415 34.8146 64.7358 34.8581 63.0322 34.175ZM64.0113 13.2212C63.7052 13.8113 63.5819 14.2983 63.5819 14.3125C62.6463 17.8347 60.4304 17.8176 58.7279 17.0931C58.9027 16.7516 59.0633 16.3525 59.1977 15.8877C59.2533 15.7149 60.2182 11.9895 64.0113 13.2212ZM58.8127 13.8396C58.4844 14.4105 58.35 14.8985 58.3429 14.9086C57.3053 18.3753 55.0803 18.2712 53.3949 17.4821C53.5768 17.1426 53.7476 16.7556 53.8951 16.2999C53.9587 16.1251 55.0348 12.4614 58.8127 13.8396ZM53.6051 14.4408C53.2636 14.9945 53.1161 15.4714 53.1121 15.4855C51.9723 18.8957 49.7403 18.7098 48.065 17.8661C48.26 17.5326 48.448 17.1537 48.6056 16.7061C48.6703 16.5374 49.8515 12.9322 53.6051 14.4408ZM48.3732 14.9561C47.9519 15.4795 47.7286 15.9362 47.7276 15.9463C46.0644 19.2443 43.9123 18.8138 42.4098 17.7812C42.6513 17.47 42.8928 17.1103 43.1221 16.6798C43.2171 16.5172 44.9449 13.0313 48.3732 14.9561ZM42.5078 15.3481C42.0319 15.825 41.7712 16.2555 41.7651 16.2656C39.8029 19.3604 37.6983 18.6986 36.3009 17.5074C36.5707 17.2265 36.8465 16.891 37.1143 16.4879C37.2204 16.3434 39.2725 13.0575 42.5078 15.3481ZM36.8405 15.0147C36.3565 15.4724 36.0806 15.8907 36.0746 15.9018C34.0325 18.9219 31.946 18.1762 30.5769 16.9314C30.8538 16.6647 31.1377 16.3434 31.4176 15.9463C31.5257 15.8028 33.6617 12.6038 36.8405 15.0147ZM26.2766 14.5903C26.3898 14.4479 28.6127 11.3439 31.7278 13.8861C31.2287 14.3195 30.9437 14.7338 30.9336 14.7409C28.8118 17.6731 26.7445 16.8425 25.4138 15.5441C25.6946 15.2835 25.9856 14.9712 26.2766 14.5903ZM24.1245 34.0528C24.4114 33.7961 24.7044 33.487 25.0005 33.1101C25.1137 32.9686 27.3709 29.8879 30.4567 32.4654C29.9535 32.8918 29.6635 33.3041 29.6534 33.3121C27.5012 36.2191 25.442 35.3653 24.1245 34.0528ZM29.2745 35.4997C29.5544 35.235 29.8404 34.9157 30.1253 34.5226C30.2344 34.3791 32.4078 31.2034 35.5572 33.6506C35.0682 34.1003 34.7873 34.5186 34.7822 34.5297C32.7068 37.5266 30.6295 36.7566 29.2745 35.4997ZM34.9914 36.1413C35.2642 35.8594 35.5431 35.53 35.8159 35.1289C35.923 34.9813 38.0115 31.7218 41.2226 34.0487C40.7416 34.5196 40.4769 34.947 40.4698 34.9571C38.4723 38.0277 36.3767 37.3437 34.9914 36.1413ZM40.9346 36.4788C41.1792 36.1706 41.4226 35.8129 41.6591 35.3835C41.7561 35.2218 43.5212 31.7551 46.9273 33.7163C46.5019 34.2367 46.2746 34.6914 46.2726 34.7015C44.5731 37.9812 42.425 37.5266 40.9346 36.4788ZM51.8238 34.3034C50.6466 37.6993 48.4157 37.4902 46.7505 36.6263C46.9486 36.2959 47.1415 35.919 47.3042 35.4744C47.3709 35.3057 48.5915 31.7137 52.329 33.2636C51.9804 33.8143 51.8278 34.2862 51.8238 34.3034ZM52.3441 36.3009C52.5301 35.9635 52.7048 35.5765 52.8584 35.1228C52.9231 34.951 54.0406 31.3004 57.8023 32.719C57.4679 33.2889 57.3275 33.7709 57.3204 33.782C56.2463 37.2376 54.0224 37.1082 52.3441 36.3009ZM62.6311 32.9029C61.657 36.4161 59.4412 36.3737 57.7478 35.63C57.9266 35.2885 58.0903 34.8924 58.2317 34.4287C58.2883 34.2589 59.2947 30.5446 63.0736 31.8177C62.7604 32.4028 62.6311 32.8888 62.6311 32.9029Z" fill="#6AB3AB"/>
  <path d="M54.0072 3.42137C53.4879 3.55171 53.7768 5.12999 54.0294 5.29772C54.283 5.4705 56.5352 5.31791 56.6373 5.01579C56.7373 4.71368 56.7212 3.4628 56.4332 3.3264C56.1473 3.18696 54.763 3.23141 54.0072 3.42137Z" fill="#6AB3AB"/>
</svg>
