<svg width="286" height="63" viewBox="0 0 286 63" fill="none" xmlns="http://www.w3.org/2000/svg">
  <path d="M118.819 17.1199C119.252 16.4319 119.902 16.0859 120.77 16.0859C121.507 16.0859 122.167 16.232 122.744 16.519C123.323 16.808 123.611 17.2899 123.611 17.9639C123.611 19.2829 123.548 21.1279 123.418 23.5069C123.29 25.8199 123.226 27.5359 123.226 28.6609C123.226 30.4279 123.289 32.7889 123.418 35.7419C123.547 38.5699 123.611 40.6419 123.611 41.9589C123.611 43.0189 123.595 43.8049 123.564 44.3179C123.564 44.8329 123.281 45.341 122.72 45.838C122.158 46.337 121.299 46.5839 120.143 46.5839C119.532 46.5839 119.01 46.4809 118.577 46.2709C118.143 46.0619 117.845 45.8309 117.685 45.5729C116.176 43.7429 113.975 40.6269 111.084 36.2239C107.839 31.3089 105.189 27.553 103.133 24.95C103.391 27.265 103.52 30.091 103.52 33.433C103.52 34.908 103.496 36.8269 103.447 39.1909C103.399 41.5489 103.327 43.0999 103.23 43.8369C103.101 44.7719 102.82 45.4839 102.387 45.9819C101.953 46.4819 101.27 46.7289 100.339 46.7289C99.6324 46.7289 99.1104 46.5289 98.7724 46.1279C98.4364 45.7259 98.2353 45.0259 98.1723 44.0309C98.1383 42.7139 98.2193 40.7389 98.4133 38.1039C98.4433 37.6859 98.4923 36.9629 98.5583 35.9359C98.6213 34.9069 98.6543 33.9929 98.6543 33.1889C98.6543 30.9729 98.5414 28.4359 98.3174 25.5779C98.1254 22.4299 98.0273 20.1009 98.0273 18.5919C98.0273 17.8199 98.3084 17.227 98.8714 16.808C99.4314 16.39 100.083 16.1819 100.822 16.1819C101.465 16.1819 102.138 16.3429 102.845 16.6639C105.608 20.1329 109.35 25.3059 114.072 32.1789L118.6 39.1169C118.632 38.6029 118.648 37.8829 118.648 36.9489C118.648 35.3099 118.617 33.5439 118.553 31.6489C118.487 29.7529 118.439 28.469 118.405 27.795C118.246 24.68 118.166 21.9319 118.166 19.5549C118.167 18.6249 118.384 17.8129 118.819 17.1199Z" fill="#222222"/>
  <path d="M140.572 25.9623C140.572 27.9233 140.699 30.7993 140.956 34.5883C140.988 35.1653 141.053 36.3303 141.15 38.0803C141.246 39.8323 141.294 41.4303 141.294 42.8743C141.615 42.8433 141.961 42.7933 142.331 42.7313C142.699 42.6663 142.981 42.6343 143.174 42.6343C143.881 42.6343 144.442 42.8103 144.86 43.1623C145.277 43.5163 145.487 44.0623 145.487 44.8023C145.487 45.2813 145.294 45.6523 144.909 45.9083C144.524 46.1673 143.857 46.3513 142.909 46.4623C141.962 46.5743 140.588 46.6313 138.79 46.6313C136.798 46.6313 135.304 46.5683 134.308 46.4403C133.314 46.3113 132.624 46.0613 132.238 45.6933C131.851 45.3243 131.658 44.7713 131.658 44.0313C131.658 43.4833 131.835 43.1133 132.189 42.9233C132.543 42.7323 133.04 42.6353 133.683 42.6353L134.695 42.6833L136.285 42.7793L136.043 37.0943C135.85 34.0103 135.756 31.1833 135.756 28.6143C135.756 27.2333 135.802 25.3383 135.899 22.9263L135.996 20.2793C134.903 20.3423 134.052 20.3753 133.442 20.3753C132.735 20.3753 132.262 20.2473 132.021 19.9893C131.78 19.7323 131.659 19.2023 131.659 18.4003C131.659 17.5003 132.278 16.9223 133.515 16.6653C134.751 16.4083 136.638 16.2783 139.177 16.2783C141.135 16.2783 142.605 16.3433 143.585 16.4723C144.564 16.6013 145.055 16.8903 145.055 17.3383C145.055 18.4303 144.821 19.1443 144.355 19.4833C143.888 19.8213 142.997 19.9893 141.681 19.9893L140.718 20.0373C140.62 22.0923 140.572 24.0683 140.572 25.9623Z" fill="#222222"/>
  <path d="M174.009 42.008C173.366 42.939 172.257 43.855 170.684 44.753C169.624 45.396 168.403 45.886 167.022 46.223C165.641 46.56 164.244 46.729 162.831 46.729C161.963 46.729 160.959 46.56 159.819 46.223C158.678 45.886 157.756 45.558 157.049 45.235L156.231 44.513C154.785 43.325 153.781 42.368 153.219 41.645C152.656 40.922 152.375 40.032 152.375 38.973C152.375 38.136 152.568 37.512 152.954 37.094C153.341 36.676 153.965 36.467 154.835 36.467C155.284 36.467 155.701 36.611 156.087 36.899C156.47 37.191 156.809 37.591 157.098 38.105C157.901 39.518 158.855 40.555 159.965 41.213C161.072 41.871 162.382 42.2 163.891 42.2C165.305 42.2 166.734 41.768 168.179 40.899C169.367 40.161 169.962 39.437 169.962 38.73C169.962 37.477 169.408 36.435 168.299 35.599C167.191 34.764 165.609 34.009 163.553 33.333C162.3 32.884 160.422 32.049 157.917 30.829C156.213 29.992 154.944 28.966 154.109 27.745C153.274 26.523 152.856 25.241 152.856 23.889C152.856 22.671 153.281 21.474 154.133 20.301C154.984 19.129 156.021 18.252 157.241 17.674C157.884 17.354 158.91 17.009 160.325 16.638C161.737 16.272 162.798 16.085 163.505 16.085C164.821 16.085 165.962 16.237 166.926 16.542C167.89 16.847 168.837 17.274 169.768 17.818C171.181 18.624 172.226 19.344 172.899 19.987C173.573 20.631 173.912 21.432 173.912 22.395C173.912 22.974 173.696 23.489 173.262 23.937C172.827 24.388 172.081 24.612 171.021 24.612C170.763 24.612 170.506 24.5 170.25 24.274C169.994 24.051 169.673 23.712 169.287 23.262C168.772 22.588 168.276 22.138 167.793 21.913C167.665 21.884 167.145 21.674 166.228 21.288C165.312 20.902 164.181 20.707 162.832 20.707C161.547 20.707 160.406 21.005 159.41 21.6C158.416 22.197 157.918 23.054 157.918 24.178C157.918 25.304 158.93 26.218 160.952 26.924C163.104 27.762 164.894 28.484 166.324 29.093C167.755 29.702 169.142 30.426 170.492 31.26C172.034 32.193 173.166 33.171 173.889 34.199C174.612 35.229 174.974 36.608 174.974 38.344C174.973 39.856 174.65 41.075 174.009 42.008Z" fill="#222222"/>
  <path d="M205.071 27.0701V25.2421C205.071 24.0201 205.038 23.1031 204.974 22.4931C204.909 21.9801 204.877 20.6461 204.877 18.4941C204.877 17.7241 205.11 17.1201 205.576 16.6871C206.04 16.2531 206.676 16.0361 207.48 16.0361C208.506 16.0361 209.198 16.2611 209.551 16.7121C209.904 17.1611 210.081 17.9011 210.081 18.9301V20.7581L210.033 26.0601C210.002 27.0881 209.986 28.6291 209.986 30.6851L210.033 34.6361C210.064 35.2471 210.081 36.0971 210.081 37.1911C210.081 38.0551 210.112 39.2941 210.178 40.9001C210.241 42.3791 210.274 43.4841 210.274 44.2241C210.274 44.8331 210.106 45.3961 209.768 45.9101C209.431 46.4261 208.974 46.6811 208.395 46.6811C206.146 46.6811 205.022 45.9261 205.022 44.4171C205.022 43.5811 205.052 42.6491 205.118 41.6211C205.183 40.8841 205.215 39.7581 205.215 38.2491C205.215 37.1901 205.183 35.6631 205.118 33.6721C203.608 33.8011 201.007 33.8641 197.312 33.8641C194.999 33.8641 193.2 33.8551 191.916 33.8411C190.631 33.8251 189.698 33.7531 189.121 33.6241L189.074 39.1651C189.074 39.5181 189.152 40.4651 189.314 42.0081C189.474 43.0361 189.556 43.9361 189.556 44.7051C189.556 45.1891 189.273 45.6461 188.711 46.0791C188.15 46.5131 187.628 46.7281 187.146 46.7281C185.989 46.7281 185.203 46.4471 184.785 45.8851C184.367 45.3231 184.16 44.4621 184.16 43.3071L184.11 39.5021C184.08 39.0531 184.064 38.4251 184.064 37.6221C184.064 36.4341 184.031 34.8101 183.968 32.7561C183.903 30.8951 183.871 29.5441 183.871 28.7081C183.871 27.4551 183.902 25.7051 183.968 23.4571C184.031 21.3371 184.064 19.7641 184.064 18.7331C184.064 17.7071 184.32 17.0151 184.834 16.6631C185.348 16.3101 185.925 16.1331 186.569 16.1331C188.366 16.1331 189.267 16.7271 189.267 17.9161C189.267 20.0351 189.218 22.0621 189.121 23.9871C189.056 26.4281 189.025 28.2101 189.025 29.3341C189.957 29.5601 190.936 29.7031 191.963 29.7681C192.991 29.8341 194.436 29.8641 196.298 29.8641C200.09 29.8641 203.029 29.7041 205.116 29.3821C205.086 28.8691 205.071 28.1001 205.071 27.0701Z" fill="#222222"/>
  <path d="M266.388 43.5971C266.564 43.8551 266.652 44.2241 266.652 44.7051C266.652 45.3161 266.42 45.8051 265.955 46.1761C265.487 46.5431 264.951 46.7292 264.341 46.7292C263.633 46.7292 262.832 46.5542 261.933 46.1992C260.133 45.3962 258.374 43.9121 256.657 41.7441C254.937 39.5741 252.875 36.4522 250.465 32.3722C248.635 33.7842 246.77 35.1011 244.877 36.3221C244.877 36.9961 244.901 37.7762 244.949 38.6602C244.997 39.5442 245.022 40.1941 245.022 40.6101C245.085 42.4721 245.118 43.7102 245.118 44.3192C245.118 44.8672 244.942 45.3881 244.588 45.8861C244.234 46.3841 243.705 46.6321 242.998 46.6321C241.971 46.6321 241.231 46.4631 240.783 46.1281C240.33 45.7891 240.059 45.3001 239.962 44.6581C239.706 43.0511 239.578 41.5102 239.578 40.0312C239.578 38.3632 239.706 35.9522 239.962 32.8032C240.218 29.7852 240.349 27.5202 240.349 26.0102C240.349 25.4332 240.316 24.5982 240.252 23.5062C240.218 22.6382 240.124 21.8342 239.962 21.0952C239.835 20.0692 239.771 19.3451 239.771 18.9291C239.771 17.9011 239.996 17.1602 240.445 16.7112C240.894 16.2602 241.584 16.0352 242.517 16.0352C243.224 16.0352 243.809 16.2372 244.275 16.6382C244.739 17.0412 245.005 17.5772 245.07 18.2522C245.231 20.9842 245.309 23.0862 245.309 24.5652C245.278 25.3682 245.221 26.5152 245.142 28.0092C245.062 29.5042 244.989 30.4432 244.925 30.8282C246.016 30.2172 248.16 28.4592 251.358 25.5532C254.552 22.6452 256.825 20.3572 258.175 18.6862L258.8 17.9622C259.314 17.2872 259.748 16.8232 260.101 16.5662C260.455 16.3102 260.937 16.1801 261.547 16.1801C262.158 16.1801 262.712 16.3821 263.21 16.7841C263.709 17.1841 263.956 17.6562 263.956 18.2042C263.956 19.2642 263.411 20.3392 262.319 21.4322C259.653 24.1962 256.987 26.7641 254.321 29.1411C258.078 36.1751 261.852 40.7841 265.643 42.9681C265.962 43.1311 266.211 43.3411 266.388 43.5971Z" fill="#222222"/>
  <path d="M280.431 25.9623C280.431 28.5653 280.512 31.4403 280.672 34.5883C280.8 38.3153 280.864 41.0753 280.864 42.8743C282.084 42.7143 282.823 42.6353 283.079 42.6353C283.787 42.6353 284.35 42.8113 284.767 43.1633C285.184 43.5173 285.394 44.0633 285.394 44.8033C285.394 45.2823 285.201 45.6533 284.814 45.9093C284.43 46.1683 283.762 46.3523 282.815 46.4633C281.867 46.5753 280.494 46.6323 278.695 46.6323C276.703 46.6323 275.21 46.5693 274.215 46.4413C273.218 46.3123 272.527 46.0623 272.142 45.6943C271.758 45.3253 271.564 44.7723 271.564 44.0323C271.564 43.4843 271.739 43.1143 272.094 42.9243C272.448 42.7333 272.945 42.6363 273.589 42.6363L274.6 42.6843L276.19 42.7803L275.949 37.0953C275.756 34.0113 275.66 31.1843 275.66 28.6153C275.66 27.2343 275.707 25.3393 275.804 22.9273L275.901 20.2803C274.808 20.3433 273.957 20.3763 273.347 20.3763C272.64 20.3763 272.167 20.2483 271.926 19.9903C271.685 19.7333 271.564 19.2033 271.564 18.4013C271.564 17.5013 272.183 16.9233 273.42 16.6663C274.654 16.4093 276.543 16.2793 279.081 16.2793C281.038 16.2793 282.509 16.3443 283.489 16.4733C284.469 16.6023 284.959 16.8913 284.959 17.3393C284.959 18.4313 284.726 19.1453 284.26 19.4843C283.794 19.8223 282.903 19.9903 281.586 19.9903L280.622 20.0383C280.495 22.8003 280.431 24.7743 280.431 25.9623Z" fill="#222222"/>
  <path d="M227.185 25.9623C227.185 28.5653 227.265 31.4403 227.425 34.5883C227.554 38.3153 227.618 41.0753 227.618 42.8743C228.837 42.7143 229.576 42.6353 229.835 42.6353C230.54 42.6353 231.104 42.8113 231.521 43.1633C231.939 43.5173 232.148 44.0633 232.148 44.8033C232.148 45.2823 231.955 45.6533 231.569 45.9093C231.184 46.1683 230.517 46.3523 229.57 46.4633C228.622 46.5753 227.248 46.6323 225.451 46.6323C223.458 46.6323 221.964 46.5693 220.969 46.4413C219.973 46.3123 219.282 46.0623 218.897 45.6943C218.513 45.3253 218.32 44.7723 218.32 44.0323C218.32 43.4843 218.495 43.1143 218.85 42.9243C219.204 42.7333 219.701 42.6363 220.343 42.6363L221.356 42.6843L222.947 42.7803L222.706 37.0953C222.513 34.0113 222.416 31.1843 222.416 28.6153C222.416 27.2343 222.464 25.3393 222.56 22.9273L222.657 20.2803C221.565 20.3433 220.714 20.3763 220.103 20.3763C219.397 20.3763 218.923 20.2483 218.682 19.9903C218.441 19.7333 218.321 19.2033 218.321 18.4013C218.321 17.5013 218.939 16.9233 220.175 16.6663C221.412 16.4093 223.3 16.2793 225.837 16.2793C227.795 16.2793 229.265 16.3443 230.245 16.4733C231.224 16.6023 231.715 16.8913 231.715 17.3393C231.715 18.4313 231.483 19.1453 231.018 19.4843C230.55 19.8223 229.66 19.9903 228.343 19.9903L227.38 20.0383C227.249 22.8003 227.185 24.7743 227.185 25.9623Z" fill="#222222"/>
  <path d="M6.93137 5.05804C7.86537 5.62004 8.85236 6.12203 9.99336 6.13003C13.1824 5.15103 16.4464 4.63002 19.7634 4.41802C20.8324 3.43402 22.0504 2.65002 23.2294 1.81402C24.6844 0.776018 26.2134 0.373031 27.9654 0.859031C28.3914 0.982032 28.6974 1.15004 28.7504 1.58804C28.8404 2.32204 28.8934 3.05802 28.9654 3.79702C31.1014 3.79702 33.2374 3.79702 35.3744 3.79702C37.5164 3.79702 39.6494 3.79702 41.7854 3.79702C41.8554 3.05802 41.9124 2.32204 41.9974 1.58804C42.0554 1.15004 42.3574 0.982032 42.7834 0.859031C44.5344 0.373031 46.0664 0.776018 47.5194 1.81402C48.7004 2.65102 49.9154 3.43402 50.9834 4.41802C54.3054 4.63002 57.5664 5.15103 60.7554 6.13003C61.8934 6.12203 62.8814 5.61904 63.8154 5.05804C64.4324 4.69504 64.4224 4.11903 63.9264 3.57903C63.5824 3.20703 63.1344 3.00502 62.6774 2.85302C60.1354 2.01102 57.5094 1.56402 54.8564 1.26302C51.3954 0.867023 47.9254 0.631037 44.4424 0.446037C41.4204 0.288037 38.3954 1.74902 35.3734 1.76702C32.3524 1.74802 29.3314 0.288037 26.3064 0.446037C22.8254 0.632037 19.3544 0.868023 15.8894 1.26302C13.2374 1.56402 10.6134 2.01102 8.06636 2.85302C7.61336 3.00402 7.16137 3.20703 6.81937 3.57903C6.32637 4.11803 6.31637 4.69404 6.93137 5.05804Z" fill="#6AB3AB"/>
  <path d="M19.183 5.14605C18.774 5.33805 18.752 7.11004 18.893 7.53704C19.035 7.96504 22.229 8.18304 22.585 7.93804C22.948 7.69904 23.356 5.46305 22.615 5.28005C21.549 5.01305 19.593 4.94805 19.183 5.14605Z" fill="#6AB3AB"/>
  <path d="M61.3737 49.7729C61.5887 49.2619 61.7817 48.6788 61.9258 48.0068C61.9958 47.7548 62.9778 42.5819 68.2218 43.6139L69.3797 18.8438C68.1417 23.5748 65.1077 23.6598 62.7377 22.7408C62.9667 22.2388 63.1768 21.6648 63.3468 20.9978C63.4188 20.7618 64.5627 15.8049 69.4727 16.8369L70.0267 4.98584C70.0267 4.98584 63.9048 9.98786 48.4108 10.5229C42.7318 10.5229 38.7847 11.8499 35.3727 11.8499C31.9618 11.8499 28.0108 10.5229 22.3368 10.5229C6.83975 9.98786 0.71875 4.98584 0.71875 4.98584L1.39375 19.4019C1.46175 19.3239 1.52876 19.2579 1.59676 19.1739C1.75976 18.9779 5.01876 14.7088 9.33376 18.4768C8.62076 19.0578 8.19975 19.6228 8.19075 19.6418C5.66675 22.9048 3.28475 22.6778 1.49075 21.4588L2.54276 43.9069C3.87976 43.6189 5.53175 43.8699 7.28375 45.5948C6.52675 46.1308 6.06275 46.6638 6.05275 46.6848C4.88975 47.9818 3.79076 48.6529 2.77776 48.9069L2.96775 52.9669C3.01175 53.9599 3.34875 54.7418 3.99575 55.4588C5.62575 57.2598 7.75476 58.2178 9.95975 59.0298C14.3298 60.6368 18.8658 61.4508 23.4798 61.9818C27.4378 62.4428 43.3088 62.4428 47.2668 61.9818C51.8828 61.4508 56.4198 60.6368 60.7868 59.0298C62.9958 58.2168 65.1238 57.2588 66.7518 55.4588C67.3978 54.7418 67.7348 53.9599 67.7848 52.9669L68.1788 44.5579C68.0608 44.9629 68.0078 45.2458 68.0058 45.2568C67.0728 50.3678 63.8757 50.6189 61.3737 49.7729ZM62.2948 19.1559C61.8618 19.9919 61.6878 20.6818 61.6878 20.7008C60.3638 25.6878 57.2238 25.6648 54.8158 24.6378C55.0628 24.1538 55.2898 23.5898 55.4798 22.9308C55.5588 22.6868 56.9238 17.4109 62.2948 19.1559ZM54.9328 20.0319C54.4678 20.8419 54.2767 21.5299 54.2677 21.5449C52.7997 26.4519 49.6488 26.3069 47.2617 25.1898C47.5197 24.7108 47.7607 24.1599 47.9707 23.5139C48.0597 23.2679 49.5838 18.0809 54.9328 20.0319ZM47.5578 20.8849C47.0768 21.6669 46.8648 22.3408 46.8618 22.3618C45.2468 27.1918 42.0868 26.9288 39.7158 25.7328C39.9898 25.2618 40.2548 24.7259 40.4798 24.0909C40.5728 23.8519 42.2438 18.7469 47.5578 20.8849ZM40.1508 21.6089C39.5548 22.3499 39.2397 22.9998 39.2377 23.0148C36.8827 27.6838 33.8348 27.0739 31.7078 25.6139C32.0518 25.1739 32.3918 24.6639 32.7168 24.0529C32.8507 23.8229 35.2958 18.8859 40.1508 21.6089ZM31.8458 22.1678C31.1728 22.8418 30.8038 23.4529 30.7948 23.4669C28.0148 27.8499 25.0358 26.9118 23.0558 25.2268C23.4378 24.8278 23.8278 24.3538 24.2078 23.7828C24.3588 23.5758 27.2648 18.9238 31.8458 22.1678ZM23.8208 21.6949C23.1338 22.3419 22.7438 22.9338 22.7368 22.9518C19.8448 27.2278 16.8918 26.1718 14.9528 24.4088C15.3458 24.0318 15.7458 23.5758 16.1418 23.0148C16.2968 22.8118 19.3218 18.2809 23.8208 21.6949ZM8.86375 21.0948C9.02475 20.8948 12.1707 16.4968 16.5807 20.0988C15.8737 20.7108 15.4697 21.2978 15.4557 21.3088C12.4527 25.4598 9.52575 24.2849 7.63976 22.4459C8.04176 22.0759 8.45075 21.6348 8.86375 21.0948ZM5.30875 49.4468C5.74075 49.1058 6.18676 48.6898 6.63976 48.1808C6.82976 47.9908 10.2498 43.8109 14.5138 47.6269C13.7688 48.2039 13.3278 48.7688 13.3128 48.7798C10.0448 52.7678 7.09475 51.4068 5.30875 49.4468ZM12.6388 51.8499C13.0608 51.4949 13.4908 51.0588 13.9238 50.5198C14.1048 50.3238 17.3657 45.9619 21.7897 49.5349C21.0717 50.1558 20.6498 50.7348 20.6418 50.7528C17.5278 54.9138 14.5178 53.7129 12.6388 51.8499ZM20.8818 53.0378C21.2898 52.6508 21.7048 52.1929 22.1138 51.6349C22.2868 51.4309 25.3668 46.8968 29.9408 50.2358C29.2428 50.8938 28.8518 51.4968 28.8418 51.5128C25.9018 55.8278 22.8398 54.7958 20.8818 53.0378ZM29.4908 53.6718C29.8518 53.2398 30.2098 52.7348 30.5548 52.1318C30.7098 51.9008 33.2588 47.0278 38.1588 49.7778C37.5508 50.5148 37.2238 51.1618 37.2208 51.1758C34.7858 55.8328 31.6318 55.1798 29.4908 53.6718ZM45.2278 50.5148C43.6218 55.3608 40.3508 55.1109 37.9298 53.8979C38.2148 53.4309 38.4857 52.8938 38.7207 52.2618C38.8247 52.0158 40.5258 46.9409 45.9218 49.0309C45.4398 49.8199 45.2298 50.4928 45.2278 50.5148ZM53.1257 49.5638C51.7487 54.5088 48.4878 54.4219 46.0368 53.3289C46.2968 52.8449 46.5368 52.2929 46.7448 51.6439C46.8428 51.3939 48.3157 46.2118 53.7677 48.0368C53.3127 48.8598 53.1367 49.5498 53.1257 49.5638ZM60.7097 48.0028C59.5557 53.0418 56.3197 53.1238 53.8347 52.1588C54.0757 51.6668 54.2938 51.0958 54.4707 50.4338C54.5527 50.1798 55.7878 44.8979 61.2668 46.4369C60.8628 47.2879 60.7087 47.9838 60.7097 48.0028Z" fill="#6AB3AB"/>
  <path d="M48.1293 5.27884C47.3933 5.46284 47.8013 7.69786 48.1603 7.93686C48.5193 8.18086 51.7103 7.96286 51.8533 7.53586C51.9933 7.10886 51.9713 5.33784 51.5633 5.14484C51.1593 4.94784 49.1993 5.01284 48.1293 5.27884Z" fill="#6AB3AB"/>
</svg>
  