<svg xmlns="http://www.w3.org/2000/svg" width="285" height="63" viewBox="0 0 285 63" fill="none">
  <path d="M118.101 17.1199C118.534 16.4319 119.184 16.0859 120.052 16.0859C120.789 16.0859 121.449 16.232 122.026 16.519C122.605 16.808 122.893 17.2899 122.893 17.9639C122.893 19.2829 122.83 21.1279 122.7 23.5069C122.572 25.8199 122.508 27.5359 122.508 28.6609C122.508 30.4279 122.571 32.7889 122.7 35.7419C122.829 38.5699 122.893 40.6419 122.893 41.9589C122.893 43.0189 122.877 43.8049 122.846 44.3179C122.846 44.8329 122.563 45.341 122.002 45.838C121.44 46.337 120.581 46.5839 119.425 46.5839C118.814 46.5839 118.292 46.4809 117.859 46.2709C117.425 46.0619 117.127 45.8309 116.967 45.5729C115.458 43.7429 113.257 40.6269 110.366 36.2239C107.121 31.3089 104.471 27.553 102.415 24.95C102.673 27.265 102.802 30.091 102.802 33.433C102.802 34.908 102.778 36.8269 102.729 39.1909C102.681 41.5489 102.609 43.0999 102.512 43.8369C102.383 44.7719 102.102 45.4839 101.669 45.9819C101.235 46.4819 100.552 46.7289 99.6206 46.7289C98.9136 46.7289 98.3916 46.5289 98.0536 46.1279C97.7176 45.7259 97.5166 45.0259 97.4536 44.0309C97.4196 42.7139 97.5006 40.7389 97.6946 38.1039C97.7246 37.6859 97.7736 36.9629 97.8396 35.9359C97.9026 34.9069 97.9356 33.9929 97.9356 33.1889C97.9356 30.9729 97.8226 28.4359 97.5986 25.5779C97.4066 22.4299 97.3086 20.1009 97.3086 18.5919C97.3086 17.8199 97.5896 17.227 98.1526 16.808C98.7126 16.39 99.3646 16.1819 100.104 16.1819C100.747 16.1819 101.42 16.3429 102.127 16.6639C104.89 20.1329 108.632 25.3059 113.354 32.1789L117.882 39.1169C117.914 38.6029 117.93 37.8829 117.93 36.9489C117.93 35.3099 117.899 33.5439 117.835 31.6489C117.769 29.7529 117.721 28.469 117.687 27.795C117.528 24.68 117.448 21.9319 117.448 19.5549C117.449 18.6249 117.666 17.8129 118.101 17.1199Z" fill="white"/>
  <path d="M139.853 25.9623C139.853 27.9233 139.98 30.7993 140.237 34.5883C140.269 35.1653 140.334 36.3303 140.431 38.0803C140.527 39.8323 140.575 41.4303 140.575 42.8743C140.896 42.8433 141.242 42.7933 141.612 42.7313C141.98 42.6663 142.262 42.6343 142.455 42.6343C143.162 42.6343 143.723 42.8103 144.141 43.1623C144.558 43.5163 144.768 44.0623 144.768 44.8023C144.768 45.2813 144.575 45.6523 144.19 45.9083C143.805 46.1673 143.138 46.3513 142.19 46.4623C141.243 46.5743 139.869 46.6313 138.071 46.6313C136.079 46.6313 134.585 46.5683 133.589 46.4403C132.595 46.3113 131.905 46.0613 131.519 45.6933C131.132 45.3243 130.939 44.7713 130.939 44.0313C130.939 43.4833 131.116 43.1133 131.47 42.9233C131.824 42.7323 132.321 42.6353 132.964 42.6353L133.976 42.6833L135.566 42.7793L135.324 37.0943C135.131 34.0103 135.037 31.1833 135.037 28.6143C135.037 27.2333 135.083 25.3383 135.18 22.9263L135.277 20.2793C134.184 20.3423 133.333 20.3753 132.723 20.3753C132.016 20.3753 131.543 20.2473 131.302 19.9893C131.061 19.7323 130.94 19.2023 130.94 18.4003C130.94 17.5003 131.559 16.9223 132.796 16.6653C134.032 16.4083 135.919 16.2783 138.458 16.2783C140.416 16.2783 141.886 16.3433 142.866 16.4723C143.845 16.6013 144.336 16.8903 144.336 17.3383C144.336 18.4303 144.102 19.1443 143.636 19.4833C143.169 19.8213 142.278 19.9893 140.962 19.9893L139.999 20.0373C139.901 22.0923 139.853 24.0683 139.853 25.9623Z" fill="white"/>
  <path d="M173.29 42.008C172.647 42.939 171.538 43.855 169.965 44.753C168.905 45.396 167.684 45.886 166.303 46.223C164.922 46.56 163.525 46.729 162.112 46.729C161.244 46.729 160.24 46.56 159.1 46.223C157.959 45.886 157.037 45.558 156.33 45.235L155.512 44.513C154.066 43.325 153.062 42.368 152.5 41.645C151.937 40.922 151.656 40.032 151.656 38.973C151.656 38.136 151.849 37.512 152.235 37.094C152.622 36.676 153.246 36.467 154.116 36.467C154.565 36.467 154.982 36.611 155.368 36.899C155.751 37.191 156.09 37.591 156.379 38.105C157.182 39.518 158.136 40.555 159.246 41.213C160.353 41.871 161.663 42.2 163.172 42.2C164.586 42.2 166.015 41.768 167.46 40.899C168.648 40.161 169.243 39.437 169.243 38.73C169.243 37.477 168.689 36.435 167.58 35.599C166.472 34.764 164.89 34.009 162.834 33.333C161.581 32.884 159.703 32.049 157.198 30.829C155.494 29.992 154.225 28.966 153.39 27.745C152.555 26.523 152.137 25.241 152.137 23.889C152.137 22.671 152.562 21.474 153.414 20.301C154.265 19.129 155.302 18.252 156.522 17.674C157.165 17.354 158.191 17.009 159.606 16.638C161.018 16.272 162.079 16.085 162.786 16.085C164.102 16.085 165.243 16.237 166.207 16.542C167.171 16.847 168.118 17.274 169.049 17.818C170.462 18.624 171.507 19.344 172.18 19.987C172.854 20.631 173.193 21.432 173.193 22.395C173.193 22.974 172.977 23.489 172.543 23.937C172.108 24.388 171.362 24.612 170.302 24.612C170.044 24.612 169.787 24.5 169.531 24.274C169.275 24.051 168.954 23.712 168.568 23.262C168.053 22.588 167.557 22.138 167.074 21.913C166.946 21.884 166.426 21.674 165.509 21.288C164.593 20.902 163.462 20.707 162.113 20.707C160.828 20.707 159.687 21.005 158.691 21.6C157.697 22.197 157.199 23.054 157.199 24.178C157.199 25.304 158.211 26.218 160.233 26.924C162.385 27.762 164.175 28.484 165.605 29.093C167.036 29.702 168.423 30.426 169.773 31.26C171.315 32.193 172.447 33.171 173.17 34.199C173.893 35.229 174.255 36.608 174.255 38.344C174.254 39.856 173.931 41.075 173.29 42.008Z" fill="white"/>
  <path d="M204.35 27.0701V25.2421C204.35 24.0201 204.317 23.1031 204.253 22.4931C204.188 21.9801 204.156 20.6461 204.156 18.4941C204.156 17.7241 204.389 17.1201 204.855 16.6871C205.319 16.2531 205.955 16.0361 206.759 16.0361C207.785 16.0361 208.477 16.2611 208.83 16.7121C209.183 17.1611 209.36 17.9011 209.36 18.9301V20.7581L209.312 26.0601C209.281 27.0881 209.265 28.6291 209.265 30.6851L209.312 34.6361C209.343 35.2471 209.36 36.0971 209.36 37.1911C209.36 38.0551 209.391 39.2941 209.457 40.9001C209.52 42.3791 209.553 43.4841 209.553 44.2241C209.553 44.8331 209.385 45.3961 209.047 45.9101C208.71 46.4261 208.253 46.6811 207.674 46.6811C205.425 46.6811 204.301 45.9261 204.301 44.4171C204.301 43.5811 204.331 42.6491 204.397 41.6211C204.462 40.8841 204.494 39.7581 204.494 38.2491C204.494 37.1901 204.462 35.6631 204.397 33.6721C202.887 33.8011 200.286 33.8641 196.591 33.8641C194.278 33.8641 192.479 33.8551 191.195 33.8411C189.91 33.8251 188.977 33.7531 188.4 33.6241L188.353 39.1651C188.353 39.5181 188.431 40.4651 188.593 42.0081C188.753 43.0361 188.835 43.9361 188.835 44.7051C188.835 45.1891 188.552 45.6461 187.99 46.0791C187.429 46.5131 186.907 46.7281 186.425 46.7281C185.268 46.7281 184.482 46.4471 184.064 45.8851C183.646 45.3231 183.439 44.4621 183.439 43.3071L183.389 39.5021C183.359 39.0531 183.343 38.4251 183.343 37.6221C183.343 36.4341 183.31 34.8101 183.247 32.7561C183.182 30.8951 183.15 29.5441 183.15 28.7081C183.15 27.4551 183.181 25.7051 183.247 23.4571C183.31 21.3371 183.343 19.7641 183.343 18.7331C183.343 17.7071 183.599 17.0151 184.113 16.6631C184.627 16.3101 185.204 16.1331 185.848 16.1331C187.645 16.1331 188.546 16.7271 188.546 17.9161C188.546 20.0351 188.497 22.0621 188.4 23.9871C188.335 26.4281 188.304 28.2101 188.304 29.3341C189.236 29.5601 190.215 29.7031 191.242 29.7681C192.27 29.8341 193.715 29.8641 195.577 29.8641C199.369 29.8641 202.308 29.7041 204.395 29.3821C204.365 28.8691 204.35 28.1001 204.35 27.0701Z" fill="white"/>
  <path d="M265.669 43.5971C265.845 43.8551 265.933 44.2241 265.933 44.7051C265.933 45.3161 265.701 45.8051 265.236 46.1761C264.768 46.5431 264.232 46.7292 263.622 46.7292C262.914 46.7292 262.113 46.5542 261.214 46.1992C259.414 45.3962 257.655 43.9121 255.938 41.7441C254.218 39.5741 252.156 36.4522 249.746 32.3722C247.916 33.7842 246.051 35.1011 244.158 36.3221C244.158 36.9961 244.182 37.7762 244.23 38.6602C244.278 39.5442 244.303 40.1941 244.303 40.6101C244.366 42.4721 244.399 43.7102 244.399 44.3192C244.399 44.8672 244.223 45.3881 243.869 45.8861C243.515 46.3841 242.986 46.6321 242.279 46.6321C241.252 46.6321 240.512 46.4631 240.064 46.1281C239.611 45.7891 239.34 45.3001 239.243 44.6581C238.987 43.0511 238.859 41.5102 238.859 40.0312C238.859 38.3632 238.987 35.9522 239.243 32.8032C239.499 29.7852 239.63 27.5202 239.63 26.0102C239.63 25.4332 239.597 24.5982 239.533 23.5062C239.499 22.6382 239.405 21.8342 239.243 21.0952C239.116 20.0692 239.052 19.3451 239.052 18.9291C239.052 17.9011 239.277 17.1602 239.726 16.7112C240.175 16.2602 240.865 16.0352 241.798 16.0352C242.505 16.0352 243.09 16.2372 243.556 16.6382C244.02 17.0412 244.286 17.5772 244.351 18.2522C244.512 20.9842 244.59 23.0862 244.59 24.5652C244.559 25.3682 244.502 26.5152 244.423 28.0092C244.343 29.5042 244.27 30.4432 244.206 30.8282C245.297 30.2172 247.441 28.4592 250.639 25.5532C253.833 22.6452 256.106 20.3572 257.456 18.6862L258.081 17.9622C258.595 17.2872 259.029 16.8232 259.382 16.5662C259.736 16.3102 260.218 16.1801 260.828 16.1801C261.439 16.1801 261.993 16.3821 262.491 16.7841C262.99 17.1841 263.237 17.6562 263.237 18.2042C263.237 19.2642 262.692 20.3392 261.6 21.4322C258.934 24.1962 256.268 26.7641 253.602 29.1411C257.359 36.1751 261.133 40.7841 264.924 42.9681C265.243 43.1311 265.492 43.3411 265.669 43.5971Z" fill="white"/>
  <path d="M279.713 25.9623C279.713 28.5653 279.794 31.4403 279.954 34.5883C280.082 38.3153 280.146 41.0753 280.146 42.8743C281.366 42.7143 282.105 42.6353 282.361 42.6353C283.069 42.6353 283.632 42.8113 284.049 43.1633C284.466 43.5173 284.676 44.0633 284.676 44.8033C284.676 45.2823 284.483 45.6533 284.096 45.9093C283.712 46.1683 283.044 46.3523 282.097 46.4633C281.149 46.5753 279.776 46.6323 277.977 46.6323C275.985 46.6323 274.492 46.5693 273.497 46.4413C272.5 46.3123 271.809 46.0623 271.424 45.6943C271.04 45.3253 270.846 44.7723 270.846 44.0323C270.846 43.4843 271.021 43.1143 271.376 42.9243C271.73 42.7333 272.227 42.6363 272.871 42.6363L273.882 42.6843L275.472 42.7803L275.231 37.0953C275.038 34.0113 274.942 31.1843 274.942 28.6153C274.942 27.2343 274.989 25.3393 275.086 22.9273L275.183 20.2803C274.09 20.3433 273.239 20.3763 272.629 20.3763C271.922 20.3763 271.449 20.2483 271.208 19.9903C270.967 19.7333 270.846 19.2033 270.846 18.4013C270.846 17.5013 271.465 16.9233 272.702 16.6663C273.936 16.4093 275.825 16.2793 278.363 16.2793C280.32 16.2793 281.791 16.3443 282.771 16.4733C283.751 16.6023 284.241 16.8913 284.241 17.3393C284.241 18.4313 284.008 19.1453 283.542 19.4843C283.076 19.8223 282.185 19.9903 280.868 19.9903L279.904 20.0383C279.777 22.8003 279.713 24.7743 279.713 25.9623Z" fill="white"/>
  <path d="M226.467 25.9623C226.467 28.5653 226.547 31.4403 226.707 34.5883C226.836 38.3153 226.9 41.0753 226.9 42.8743C228.119 42.7143 228.858 42.6353 229.117 42.6353C229.822 42.6353 230.386 42.8113 230.803 43.1633C231.221 43.5173 231.43 44.0633 231.43 44.8033C231.43 45.2823 231.237 45.6533 230.851 45.9093C230.466 46.1683 229.799 46.3523 228.852 46.4633C227.904 46.5753 226.53 46.6323 224.733 46.6323C222.74 46.6323 221.246 46.5693 220.251 46.4413C219.255 46.3123 218.564 46.0623 218.179 45.6943C217.795 45.3253 217.602 44.7723 217.602 44.0323C217.602 43.4843 217.777 43.1143 218.132 42.9243C218.486 42.7333 218.983 42.6363 219.625 42.6363L220.638 42.6843L222.229 42.7803L221.988 37.0953C221.795 34.0113 221.698 31.1843 221.698 28.6153C221.698 27.2343 221.746 25.3393 221.842 22.9273L221.939 20.2803C220.847 20.3433 219.996 20.3763 219.385 20.3763C218.679 20.3763 218.205 20.2483 217.964 19.9903C217.723 19.7333 217.603 19.2033 217.603 18.4013C217.603 17.5013 218.221 16.9233 219.457 16.6663C220.694 16.4093 222.582 16.2793 225.119 16.2793C227.077 16.2793 228.547 16.3443 229.527 16.4733C230.506 16.6023 230.997 16.8913 230.997 17.3393C230.997 18.4313 230.765 19.1453 230.3 19.4843C229.832 19.8223 228.942 19.9903 227.625 19.9903L226.662 20.0383C226.531 22.8003 226.467 24.7743 226.467 25.9623Z" fill="white"/>
  <path d="M6.21262 5.05804C7.14662 5.62004 8.13361 6.12203 9.27461 6.13003C12.4636 5.15103 15.7276 4.63002 19.0446 4.41802C20.1136 3.43402 21.3316 2.65002 22.5106 1.81402C23.9656 0.776018 25.4946 0.373031 27.2466 0.859031C27.6726 0.982032 27.9786 1.15004 28.0316 1.58804C28.1216 2.32204 28.1746 3.05802 28.2466 3.79702C30.3826 3.79702 32.5186 3.79702 34.6556 3.79702C36.7976 3.79702 38.9306 3.79702 41.0666 3.79702C41.1366 3.05802 41.1936 2.32204 41.2786 1.58804C41.3366 1.15004 41.6386 0.982032 42.0646 0.859031C43.8156 0.373031 45.3476 0.776018 46.8006 1.81402C47.9816 2.65102 49.1966 3.43402 50.2646 4.41802C53.5866 4.63002 56.8476 5.15103 60.0366 6.13003C61.1746 6.12203 62.1626 5.61904 63.0966 5.05804C63.7136 4.69504 63.7036 4.11903 63.2076 3.57903C62.8636 3.20703 62.4156 3.00502 61.9586 2.85302C59.4166 2.01102 56.7906 1.56402 54.1376 1.26302C50.6766 0.867023 47.2066 0.631037 43.7236 0.446037C40.7016 0.288037 37.6766 1.74902 34.6546 1.76702C31.6336 1.74802 28.6126 0.288037 25.5876 0.446037C22.1066 0.632037 18.6356 0.868023 15.1706 1.26302C12.5186 1.56402 9.89461 2.01102 7.34761 2.85302C6.89461 3.00402 6.44262 3.20703 6.10062 3.57903C5.60762 4.11803 5.59762 4.69404 6.21262 5.05804Z" fill="#6AB3AB"/>
  <path d="M18.4642 5.14605C18.0552 5.33805 18.0332 7.11004 18.1742 7.53704C18.3162 7.96504 21.5102 8.18304 21.8662 7.93804C22.2292 7.69904 22.6372 5.46305 21.8962 5.28005C20.8302 5.01305 18.8742 4.94805 18.4642 5.14605Z" fill="#6AB3AB"/>
  <path d="M60.655 49.7729C60.87 49.2619 61.063 48.6788 61.207 48.0068C61.277 47.7548 62.259 42.5819 67.503 43.6139L68.661 18.8438C67.423 23.5748 64.389 23.6598 62.019 22.7408C62.248 22.2388 62.458 21.6648 62.628 20.9978C62.7 20.7618 63.844 15.8049 68.754 16.8369L69.308 4.98584C69.308 4.98584 63.186 9.98786 47.692 10.5229C42.013 10.5229 38.066 11.8499 34.654 11.8499C31.243 11.8499 27.292 10.5229 21.618 10.5229C6.121 9.98786 0 4.98584 0 4.98584L0.675003 19.4019C0.743003 19.3239 0.810006 19.2579 0.878006 19.1739C1.04101 18.9779 4.30001 14.7088 8.61501 18.4768C7.90201 19.0578 7.481 19.6228 7.472 19.6418C4.948 22.9048 2.566 22.6778 0.772003 21.4588L1.82401 43.9069C3.16101 43.6189 4.813 43.8698 6.565 45.5948C5.808 46.1308 5.344 46.6638 5.334 46.6848C4.171 47.9818 3.07201 48.6529 2.05901 48.9069L2.249 52.9669C2.293 53.9599 2.63 54.7418 3.277 55.4588C4.907 57.2598 7.03601 58.2178 9.241 59.0298C13.611 60.6368 18.147 61.4508 22.761 61.9818C26.719 62.4428 42.59 62.4428 46.548 61.9818C51.164 61.4508 55.701 60.6368 60.068 59.0298C62.277 58.2168 64.405 57.2588 66.033 55.4588C66.679 54.7418 67.016 53.9599 67.066 52.9669L67.46 44.5579C67.342 44.9629 67.289 45.2458 67.287 45.2568C66.354 50.3678 63.157 50.6189 60.655 49.7729ZM61.576 19.1559C61.143 19.9919 60.969 20.6818 60.969 20.7008C59.645 25.6878 56.505 25.6648 54.097 24.6378C54.344 24.1538 54.571 23.5898 54.761 22.9308C54.84 22.6868 56.205 17.4109 61.576 19.1559ZM54.214 20.0319C53.749 20.8419 53.558 21.5299 53.549 21.5449C52.081 26.4519 48.93 26.3068 46.543 25.1898C46.801 24.7108 47.042 24.1599 47.252 23.5139C47.341 23.2679 48.865 18.0809 54.214 20.0319ZM46.839 20.8849C46.358 21.6669 46.146 22.3408 46.143 22.3618C44.528 27.1918 41.368 26.9288 38.997 25.7328C39.271 25.2618 39.536 24.7259 39.761 24.0909C39.854 23.8519 41.525 18.7469 46.839 20.8849ZM39.432 21.6089C38.836 22.3499 38.521 22.9998 38.519 23.0148C36.164 27.6838 33.116 27.0739 30.989 25.6139C31.333 25.1739 31.673 24.6639 31.998 24.0529C32.132 23.8229 34.577 18.8859 39.432 21.6089ZM31.127 22.1678C30.454 22.8418 30.085 23.4529 30.076 23.4669C27.296 27.8499 24.317 26.9118 22.337 25.2268C22.719 24.8278 23.109 24.3538 23.489 23.7828C23.64 23.5758 26.546 18.9238 31.127 22.1678ZM23.102 21.6949C22.415 22.3419 22.025 22.9338 22.018 22.9518C19.126 27.2278 16.173 26.1718 14.234 24.4088C14.627 24.0318 15.027 23.5758 15.423 23.0148C15.578 22.8118 18.603 18.2809 23.102 21.6949ZM8.145 21.0948C8.306 20.8948 11.452 16.4968 15.862 20.0988C15.155 20.7108 14.751 21.2978 14.737 21.3088C11.734 25.4598 8.80701 24.2849 6.92101 22.4459C7.32301 22.0759 7.732 21.6348 8.145 21.0948ZM4.59 49.4468C5.022 49.1058 5.46801 48.6898 5.92101 48.1808C6.11101 47.9908 9.53101 43.8109 13.795 47.6269C13.05 48.2039 12.609 48.7688 12.594 48.7798C9.326 52.7678 6.376 51.4068 4.59 49.4468ZM11.92 51.8499C12.342 51.4949 12.772 51.0588 13.205 50.5198C13.386 50.3238 16.647 45.9619 21.071 49.5349C20.353 50.1559 19.931 50.7348 19.923 50.7528C16.809 54.9138 13.799 53.7129 11.92 51.8499ZM20.163 53.0378C20.571 52.6508 20.986 52.1929 21.395 51.6349C21.568 51.4309 24.648 46.8968 29.222 50.2358C28.524 50.8938 28.133 51.4968 28.123 51.5128C25.183 55.8278 22.121 54.7958 20.163 53.0378ZM28.772 53.6718C29.133 53.2398 29.491 52.7348 29.836 52.1318C29.991 51.9008 32.54 47.0278 37.44 49.7778C36.832 50.5148 36.505 51.1618 36.502 51.1758C34.067 55.8328 30.913 55.1798 28.772 53.6718ZM44.509 50.5148C42.903 55.3608 39.632 55.1109 37.211 53.8979C37.496 53.4309 37.767 52.8938 38.002 52.2618C38.106 52.0158 39.807 46.9409 45.203 49.0309C44.721 49.8199 44.511 50.4928 44.509 50.5148ZM52.407 49.5638C51.03 54.5088 47.769 54.4219 45.318 53.3289C45.578 52.8449 45.818 52.2929 46.026 51.6439C46.124 51.3939 47.597 46.2118 53.049 48.0368C52.594 48.8598 52.418 49.5498 52.407 49.5638ZM59.991 48.0028C58.837 53.0418 55.601 53.1238 53.116 52.1588C53.357 51.6668 53.575 51.0958 53.752 50.4338C53.834 50.1798 55.069 44.8979 60.548 46.4369C60.144 47.2879 59.99 47.9838 59.991 48.0028Z" fill="#6AB3AB"/>
  <path d="M47.4106 5.27884C46.6746 5.46284 47.0826 7.69786 47.4416 7.93686C47.8006 8.18086 50.9916 7.96286 51.1346 7.53586C51.2746 7.10886 51.2526 5.33784 50.8446 5.14484C50.4406 4.94784 48.4806 5.01284 47.4106 5.27884Z" fill="#6AB3AB"/>
</svg>
