<svg xmlns="http://www.w3.org/2000/svg" width="256" height="256" viewBox="0 0 16 16" fill="none">
  <path d="M1.43531 2.06722C1.65066 2.19735 1.87922 2.31296 2.14246 2.31461C2.87868 2.08935 3.63208 1.96846 4.3977 1.91958C4.64475 1.69234 4.92617 1.51233 5.198 1.31845C5.53391 1.07865 5.88699 0.985848 6.29127 1.09848C6.39003 1.12655 6.46036 1.1652 6.47258 1.2666C6.49339 1.43637 6.50595 1.60581 6.52214 1.77624C7.01526 1.77624 7.50838 1.77624 8.00184 1.77624C8.49562 1.77624 8.98876 1.77624 9.48156 1.77624C9.49807 1.60581 9.51096 1.43637 9.53044 1.2666C9.54366 1.1652 9.614 1.12655 9.7121 1.09848C10.1167 0.985848 10.4698 1.07865 10.8054 1.31845C11.0782 1.51233 11.3589 1.69234 11.606 1.91958C12.3726 1.96846 13.126 2.08968 13.8616 2.31461C14.1245 2.31296 14.3524 2.19735 14.5677 2.06722C14.7107 1.98299 14.7081 1.85022 14.5935 1.7257C14.5142 1.63982 14.4108 1.59359 14.3055 1.55858C13.7185 1.36436 13.1121 1.26064 12.4998 1.19161C11.7001 1.10012 10.8992 1.04596 10.0952 1.00269C9.39765 0.966688 8.69908 1.30392 8.00184 1.30822C7.30459 1.30392 6.60637 0.966688 5.90846 1.00269C5.10453 1.04596 4.30357 1.10012 3.50393 1.19161C2.89157 1.26064 2.28582 1.36436 1.69724 1.55858C1.5932 1.59326 1.48883 1.63982 1.40989 1.7257C1.29561 1.84989 1.29296 1.98299 1.43531 2.06722Z" fill="#6AB3AB"/>
  <path d="M4.26101 2.08768C4.16655 2.13227 4.16126 2.54117 4.19396 2.63993C4.22666 2.73869 4.96454 2.78857 5.04612 2.73209C5.13001 2.67726 5.22448 2.16101 5.05305 2.11873C4.80732 2.05664 4.35547 2.0421 4.26101 2.08768Z" fill="#6AB3AB"/>
  <path d="M13.8951 12.1714C13.9492 12.0555 13.9994 11.9237 14.0404 11.7708C14.0582 11.7136 14.3518 10.4866 15.5888 10.8545L15.8507 5.2508C15.5647 6.34274 14.8644 6.36223 14.3172 6.15018C14.3697 6.03392 14.4189 5.90147 14.4582 5.74756C14.4744 5.69306 14.7386 4.54893 15.8722 4.78674L16 2.05127C16 2.05127 14.587 3.20564 11.0106 3.3295C9.69902 3.3295 8.78774 3.636 8.00032 3.636C7.21258 3.636 6.30064 3.3295 4.9907 3.3295C1.41331 3.20564 0 2.05127 0 2.05127L0.156235 5.37929C0.171759 5.36112 0.187603 5.34626 0.203126 5.32677C0.240779 5.28119 0.993191 4.29593 1.98935 5.16592C1.82454 5.30002 1.72743 5.43048 1.72512 5.43477C1.14249 6.18817 0.592874 6.13565 0.178028 5.85457L0.415183 10.9123C0.724997 10.805 1.12794 10.8185 1.57846 11.2208C1.41199 11.3529 1.31357 11.4821 1.31093 11.4867C1.01598 11.8599 0.731926 12.03 0.469674 12.073L0.518883 13.1283C0.529122 13.3572 0.607089 13.5382 0.756381 13.7036C1.13225 14.1191 1.62371 14.3404 2.13335 14.528C3.14206 14.8993 4.18943 15.0866 5.25429 15.2098C6.16854 15.3158 9.83179 15.3158 10.7457 15.2098C11.8116 15.0866 12.8586 14.8993 13.8667 14.528C14.3766 14.3404 14.8681 14.1191 15.244 13.7036C15.3929 13.5382 15.4712 13.3572 15.4824 13.1283L15.5881 10.8691C15.496 11.0593 15.46 11.2129 15.4587 11.2175C15.173 12.3805 14.4519 12.3947 13.8951 12.1714ZM14.2151 5.32181C14.115 5.5147 14.0747 5.67391 14.0747 5.67853C13.7689 6.82993 13.0446 6.82431 12.488 6.58749C12.5451 6.47585 12.5977 6.34539 12.6416 6.19345C12.6597 6.13697 12.9752 4.91919 14.2151 5.32181ZM12.5157 5.52395C12.4084 5.71056 12.3645 5.8701 12.3622 5.8734C12.023 7.00663 11.2957 6.97261 10.7447 6.71465C10.8042 6.60368 10.86 6.47717 10.9082 6.32821C10.929 6.27107 11.2808 5.07343 12.5157 5.52395ZM10.8134 5.72047C10.7018 5.90147 10.6536 6.05737 10.6523 6.06199C10.2797 7.17673 9.55005 7.11596 9.00243 6.84017C9.06617 6.73117 9.12762 6.60731 9.17914 6.46099C9.20028 6.40583 9.58639 5.22735 10.8134 5.72047ZM9.10318 5.88893C8.96545 6.06002 8.89244 6.20931 8.89211 6.21261C8.34845 7.29069 7.64493 7.14998 7.15379 6.81242C7.23273 6.71069 7.31167 6.59311 7.38665 6.4524C7.4177 6.39922 7.9825 5.25972 9.10318 5.88893ZM7.18582 6.01708C7.03025 6.17298 6.94504 6.31368 6.94306 6.31698C6.30164 7.32866 5.61365 7.11232 5.15686 6.72291C5.24505 6.63109 5.33521 6.52143 5.42274 6.38964C5.45742 6.34241 6.12823 5.26831 7.18582 6.01708ZM5.33323 5.90808C5.17502 6.0577 5.08485 6.19445 5.08287 6.19808C4.41535 7.18532 3.73329 6.94156 3.28574 6.53464C3.37624 6.44744 3.46906 6.34242 3.56056 6.21261C3.5959 6.16571 4.29413 5.12 5.33323 5.90808ZM1.88003 5.76936C1.91702 5.72279 2.64367 4.70814 3.66196 5.53915C3.49879 5.68084 3.40565 5.81626 3.40234 5.81857C2.70873 6.77708 2.03295 6.50558 1.59796 6.08116C1.68978 5.99594 1.7849 5.89388 1.88003 5.76936ZM1.1765 12.1314C1.27031 12.0475 1.36609 11.9465 1.46287 11.8233C1.49986 11.777 2.23772 10.77 3.24643 11.6126C3.08195 11.7519 2.98716 11.8867 2.98385 11.8893C2.28033 12.8396 1.6072 12.5605 1.1765 12.1314ZM2.86 12.6044C2.95149 12.5179 3.04497 12.4135 3.13811 12.285C3.17379 12.2381 3.88424 11.2 4.91376 12C4.75389 12.147 4.66206 12.2837 4.66041 12.2873C3.98199 13.267 3.30292 13.0153 2.86 12.6044ZM4.72879 12.8142C4.81797 12.722 4.90913 12.6143 4.9983 12.4832C5.03331 12.435 5.71603 11.3695 6.7657 12.1301C6.60848 12.284 6.52195 12.4237 6.51963 12.427C5.86665 13.4308 5.18162 13.2072 4.72879 12.8142ZM6.67158 12.9245C6.75151 12.8237 6.8311 12.7068 6.90839 12.5664C6.9401 12.5136 7.51711 11.3804 8.63053 12.0214C8.49147 12.1915 8.41715 12.3402 8.41649 12.3435C7.86094 13.4156 7.15876 13.267 6.67158 12.9245ZM10.2311 12.2134C9.84633 13.3235 9.11705 13.2551 8.57273 12.9727C8.63747 12.8647 8.70054 12.7415 8.75372 12.5962C8.77552 12.541 9.17452 11.3668 10.3963 11.8735C10.2823 12.0535 10.2324 12.2077 10.2311 12.2134ZM10.4012 12.8663C10.462 12.756 10.5191 12.6295 10.5693 12.4812C10.5905 12.4251 10.9558 11.2317 12.1855 11.6954C12.0761 11.8817 12.0302 12.0393 12.0279 12.0429C11.6768 13.1725 10.9498 13.1302 10.4012 12.8663ZM13.7639 11.7556C13.4455 12.904 12.7212 12.8901 12.1676 12.647C12.2261 12.5354 12.2796 12.4059 12.3258 12.2543C12.3443 12.1988 12.6733 10.9847 13.9086 11.4008C13.8062 11.5921 13.7639 11.7509 13.7639 11.7556Z" fill="#6AB3AB"/>
  <path d="M10.9442 2.11873C10.7744 2.16134 10.8689 2.67726 10.9515 2.73209C11.0344 2.78857 11.7706 2.73869 11.8039 2.63993C11.8366 2.54117 11.8314 2.13227 11.7372 2.08768C11.6438 2.0421 11.1913 2.05664 10.9442 2.11873Z" fill="#6AB3AB"/>
</svg>
